<svg width="1109" height="762" viewBox="0 0 1109 762" fill="none" xmlns="http://www.w3.org/2000/svg">
<path d="M622 311.5V260.5M682 177H751.5V304" stroke="#B73C55"/>
<path d="M734.5 428.969H708C708 428.969 708 349.469 708 323.469C708 313.588 715.5 302.719 720.5 301.469C730.5 298.969 761.94 307.161 789 309.469C815.07 311.693 827.5 312.469 844 312.469C853.437 312.469 872.711 312.314 875 321.469C876.661 328.114 875.563 347.776 873.711 368.5" stroke="#B73C55"/>
<path d="M708 428.97H536.493C536.493 428.97 534.997 342.269 534 327.147C534 327.147 535.496 312.026 550.453 312.026H685.564C694.04 312.026 708 310.009 708 330.172V428.97Z" stroke="#B73C55"/>
<path d="M362 371.498C362 371.498 366.012 328.996 366.513 324.496C367.014 319.996 375.038 312.496 379.551 310.496C384.064 308.496 425.183 312.996 451.759 315.996C478.336 318.996 496.388 311.351 514.942 310.496C533.496 309.641 532.994 326.496 533.496 341.497C533.997 356.497 535 429 535 429H434.209" stroke="#B73C55"/>
<path d="M328 421.5C328 421.5 322 429 318.5 434.5C312.743 443.547 313.5 448 313.5 461.5C313.5 475 313.5 592.5 313.5 592.5H340.5C340.5 592.5 340.5 475 340.5 461.5C340.5 448 341 444.5 344 440.5C347 436.5 347 436.5 347 436.5" stroke="#B73C55"/>
<path d="M340.5 592.5L343.5 591" stroke="#B73C55"/>
<path d="M933.5 547.5H741.5M368.5 452L348.5 491C348.5 491 342.535 505.089 342.5 517C342.465 529.103 345 547.5 345 547.5H626.5M666.5 547.5H701.5" stroke="#B73C55"/>
<path d="M933.5 547.5C933.5 547.5 934.5 523.23 934.5 508C934.5 500 932.408 492.281 926 484.5C919 476 874.5 435.5 874.5 435.5" stroke="#B73C55"/>
<path d="M307.5 400C322.5 380.5 341 362.5 345.5 362.5C350 362.5 430.5 414.5 433.5 422C436.5 429.5 416.5 469 412 473.5M307.5 400C325.659 412.692 354 432.5 354 432.5C354 432.5 389.35 457.489 412 473.5M307.5 400C323.035 417.63 332.989 426.69 352 440.5C373.636 456.217 387.141 463.645 412 473.5" stroke="#B73C55"/>
<path d="M873 382C873 382 928 416 942.5 425.5C957 435 958 456 958.5 465C959 474 958.5 591.5 958.5 591.5H936.5C936.5 591.5 936.5 482 936.5 472C936.5 462 935.5 439.256 921 429C906.5 418.744 877 399 877 399" stroke="#B73C55"/>
<path d="M936.5 591.5L933.5 590" stroke="#B73C55"/>
<path d="M933.5 552V593C933.5 595.485 931.485 597.5 929 597.5H738.5H620.5H348C345.515 597.5 343.5 595.485 343.5 593V552C343.5 549.515 345.515 547.5 348 547.5H666.5H741.5H929C931.485 547.5 933.5 549.515 933.5 552Z" stroke="#B73C55"/>
<path d="M621.001 254.667C621 256 620.5 259.5 622.001 260.5C623.501 261.5 679.001 182.5 681.001 179.5C683.001 176.5 681.719 174.313 680 174C676.377 173.341 671.018 172.9 667.782 172.675C666.106 172.558 665 173.5 664 174.5C663 175.5 624.5 231 623.5 232.5C623.246 232.881 622 234.5 622 236C622 237.5 621.001 253.672 621.001 254.667Z" stroke="#B73C55"/>
<path d="M664 175H622V235.5" stroke="#B73C55"/>
<path d="M635.5 214.5C635.5 214.5 646 175.5 659.5 181" stroke="#B73C55"/>
<path d="M636 214L652 188" stroke="#B73C55"/>
<path d="M638 210.5L637.5 208.5" stroke="#B73C55" stroke-width="0.5"/>
<path d="M640 208L639 204" stroke="#B73C55" stroke-width="0.5"/>
<path d="M641 206L640 202" stroke="#B73C55" stroke-width="0.5"/>
<path d="M642 204L641 199" stroke="#B73C55" stroke-width="0.5"/>
<path d="M643 202L642 197" stroke="#B73C55" stroke-width="0.5"/>
<path d="M644 201L643 195" stroke="#B73C55" stroke-width="0.5"/>
<path d="M645 199L644 192" stroke="#B73C55" stroke-width="0.5"/>
<path d="M648.989 193.06L649.175 185" stroke="#B73C55" stroke-width="0.5"/>
<path d="M647.989 194.06L648.175 186" stroke="#B73C55" stroke-width="0.5"/>
<path d="M646.651 197L646.151 189" stroke="#B73C55" stroke-width="0.5"/>
<path d="M650.5 190L651.151 183" stroke="#B73C55" stroke-width="0.5"/>
<path d="M652.005 188.001C652.005 188.001 655.662 184.648 658.005 182.501M652.005 188.001L653.036 181.001M652.005 188.001L655.505 180.501M651.005 190.001L654.005 188.501M648.5 194L651.501 192.5M649.504 192L652.504 190.5M646.997 196.499L649.997 194.999M645 199L648 197.5" stroke="#B73C55" stroke-width="0.5"/>
<path d="M639 209L638 206" stroke="#B73C55" stroke-width="0.5"/>
<path d="M639 209L638 206" stroke="#B73C55" stroke-width="0.5"/>
<rect x="459.5" y="0.5" width="135" height="189" stroke="#B73C55"/>
<path d="M500.391 166.961V159.441H501.26V162.713H503.74V159.441H504.609V166.961H503.74V163.543H501.26V166.961H500.391ZM509 167.029C508.609 167.029 508.284 166.948 508.023 166.785C507.763 166.616 507.551 166.395 507.389 166.121C507.232 165.841 507.112 165.535 507.027 165.203C506.949 164.865 506.897 164.526 506.871 164.188C506.845 163.842 506.832 163.523 506.832 163.23C506.832 162.931 506.845 162.609 506.871 162.264C506.904 161.912 506.959 161.567 507.037 161.229C507.122 160.89 507.245 160.581 507.408 160.301C507.571 160.021 507.783 159.796 508.043 159.627C508.31 159.458 508.642 159.373 509.039 159.373C509.423 159.373 509.742 159.458 509.996 159.627C510.257 159.796 510.465 160.024 510.621 160.311C510.777 160.59 510.895 160.9 510.973 161.238C511.051 161.577 511.103 161.919 511.129 162.264C511.155 162.602 511.168 162.915 511.168 163.201C511.168 163.494 511.155 163.813 511.129 164.158C511.103 164.503 511.048 164.845 510.963 165.184C510.885 165.516 510.764 165.822 510.602 166.102C510.445 166.382 510.237 166.606 509.977 166.775C509.716 166.945 509.391 167.029 509 167.029ZM509 166.199C509.247 166.199 509.449 166.124 509.605 165.975C509.768 165.825 509.895 165.633 509.986 165.398C510.077 165.164 510.143 164.913 510.182 164.646C510.227 164.373 510.253 164.113 510.26 163.865C510.273 163.611 510.279 163.403 510.279 163.24C510.279 163.071 510.273 162.859 510.26 162.605C510.253 162.352 510.227 162.088 510.182 161.814C510.143 161.535 510.074 161.274 509.977 161.033C509.885 160.786 509.758 160.587 509.596 160.438C509.439 160.281 509.234 160.203 508.98 160.203C508.733 160.203 508.531 160.281 508.375 160.438C508.219 160.587 508.095 160.786 508.004 161.033C507.913 161.274 507.848 161.531 507.809 161.805C507.77 162.078 507.743 162.342 507.73 162.596C507.724 162.843 507.721 163.048 507.721 163.211C507.721 163.374 507.724 163.582 507.73 163.836C507.743 164.083 507.77 164.344 507.809 164.617C507.854 164.891 507.923 165.148 508.014 165.389C508.105 165.63 508.229 165.825 508.385 165.975C508.548 166.124 508.753 166.199 509 166.199ZM513.391 166.961V159.441H514.416L516.74 165.34V159.441H517.609V166.961H516.584L514.26 161.062V166.961H513.391ZM522.215 167.029C521.798 167.029 521.447 166.948 521.16 166.785C520.88 166.622 520.652 166.404 520.477 166.131C520.301 165.851 520.164 165.542 520.066 165.203C519.975 164.865 519.913 164.516 519.881 164.158C519.848 163.8 519.832 163.458 519.832 163.133C519.832 162.814 519.852 162.482 519.891 162.137C519.936 161.785 520.011 161.447 520.115 161.121C520.219 160.789 520.363 160.493 520.545 160.232C520.734 159.965 520.968 159.754 521.248 159.598C521.535 159.441 521.876 159.363 522.273 159.363C522.684 159.363 523.019 159.454 523.279 159.637C523.54 159.812 523.738 160.053 523.875 160.359C524.018 160.659 524.116 160.994 524.168 161.365H523.23C523.211 161.157 523.165 160.965 523.094 160.789C523.022 160.613 522.915 160.47 522.771 160.359C522.628 160.249 522.439 160.193 522.205 160.193C521.932 160.193 521.704 160.262 521.521 160.398C521.339 160.535 521.193 160.717 521.082 160.945C520.978 161.167 520.9 161.408 520.848 161.668C520.796 161.928 520.76 162.189 520.74 162.449C520.727 162.703 520.721 162.928 520.721 163.123C520.721 163.318 520.727 163.549 520.74 163.816C520.753 164.083 520.783 164.357 520.828 164.637C520.88 164.917 520.958 165.18 521.062 165.428C521.167 165.669 521.31 165.864 521.492 166.014C521.674 166.163 521.906 166.238 522.186 166.238C522.589 166.238 522.876 166.124 523.045 165.896C523.214 165.662 523.299 165.356 523.299 164.979V163.758H522.117V162.938H524.168V165.262C524.168 165.607 524.074 165.913 523.885 166.18C523.696 166.447 523.452 166.655 523.152 166.805C522.853 166.954 522.54 167.029 522.215 167.029ZM532.891 166.961V159.441H533.76V162.986L535.957 159.441H536.982L535.059 162.342L537.236 166.961H536.182L534.512 163.162L533.76 164.305V166.961H532.891ZM541.5 167.029C541.109 167.029 540.784 166.948 540.523 166.785C540.263 166.616 540.051 166.395 539.889 166.121C539.732 165.841 539.612 165.535 539.527 165.203C539.449 164.865 539.397 164.526 539.371 164.188C539.345 163.842 539.332 163.523 539.332 163.23C539.332 162.931 539.345 162.609 539.371 162.264C539.404 161.912 539.459 161.567 539.537 161.229C539.622 160.89 539.745 160.581 539.908 160.301C540.071 160.021 540.283 159.796 540.543 159.627C540.81 159.458 541.142 159.373 541.539 159.373C541.923 159.373 542.242 159.458 542.496 159.627C542.757 159.796 542.965 160.024 543.121 160.311C543.277 160.59 543.395 160.9 543.473 161.238C543.551 161.577 543.603 161.919 543.629 162.264C543.655 162.602 543.668 162.915 543.668 163.201C543.668 163.494 543.655 163.813 543.629 164.158C543.603 164.503 543.548 164.845 543.463 165.184C543.385 165.516 543.264 165.822 543.102 166.102C542.945 166.382 542.737 166.606 542.477 166.775C542.216 166.945 541.891 167.029 541.5 167.029ZM541.5 166.199C541.747 166.199 541.949 166.124 542.105 165.975C542.268 165.825 542.395 165.633 542.486 165.398C542.577 165.164 542.643 164.913 542.682 164.646C542.727 164.373 542.753 164.113 542.76 163.865C542.773 163.611 542.779 163.403 542.779 163.24C542.779 163.071 542.773 162.859 542.76 162.605C542.753 162.352 542.727 162.088 542.682 161.814C542.643 161.535 542.574 161.274 542.477 161.033C542.385 160.786 542.258 160.587 542.096 160.438C541.939 160.281 541.734 160.203 541.48 160.203C541.233 160.203 541.031 160.281 540.875 160.438C540.719 160.587 540.595 160.786 540.504 161.033C540.413 161.274 540.348 161.531 540.309 161.805C540.27 162.078 540.243 162.342 540.23 162.596C540.224 162.843 540.221 163.048 540.221 163.211C540.221 163.374 540.224 163.582 540.23 163.836C540.243 164.083 540.27 164.344 540.309 164.617C540.354 164.891 540.423 165.148 540.514 165.389C540.605 165.63 540.729 165.825 540.885 165.975C541.048 166.124 541.253 166.199 541.5 166.199ZM545.891 166.961V159.441H546.916L549.24 165.34V159.441H550.109V166.961H549.084L546.76 161.062V166.961H545.891ZM554.715 167.029C554.298 167.029 553.947 166.948 553.66 166.785C553.38 166.622 553.152 166.404 552.977 166.131C552.801 165.851 552.664 165.542 552.566 165.203C552.475 164.865 552.413 164.516 552.381 164.158C552.348 163.8 552.332 163.458 552.332 163.133C552.332 162.814 552.352 162.482 552.391 162.137C552.436 161.785 552.511 161.447 552.615 161.121C552.719 160.789 552.863 160.493 553.045 160.232C553.234 159.965 553.468 159.754 553.748 159.598C554.035 159.441 554.376 159.363 554.773 159.363C555.184 159.363 555.519 159.454 555.779 159.637C556.04 159.812 556.238 160.053 556.375 160.359C556.518 160.659 556.616 160.994 556.668 161.365H555.73C555.711 161.157 555.665 160.965 555.594 160.789C555.522 160.613 555.415 160.47 555.271 160.359C555.128 160.249 554.939 160.193 554.705 160.193C554.432 160.193 554.204 160.262 554.021 160.398C553.839 160.535 553.693 160.717 553.582 160.945C553.478 161.167 553.4 161.408 553.348 161.668C553.296 161.928 553.26 162.189 553.24 162.449C553.227 162.703 553.221 162.928 553.221 163.123C553.221 163.318 553.227 163.549 553.24 163.816C553.253 164.083 553.283 164.357 553.328 164.637C553.38 164.917 553.458 165.18 553.562 165.428C553.667 165.669 553.81 165.864 553.992 166.014C554.174 166.163 554.406 166.238 554.686 166.238C555.089 166.238 555.376 166.124 555.545 165.896C555.714 165.662 555.799 165.356 555.799 164.979V163.758H554.617V162.938H556.668V165.262C556.668 165.607 556.574 165.913 556.385 166.18C556.196 166.447 555.952 166.655 555.652 166.805C555.353 166.954 555.04 167.029 554.715 167.029Z" fill="#B73C55"/>
<path d="M519.635 156.624V152.81C519.471 152.874 519.31 152.938 519.151 153.003C518.993 153.067 518.829 153.129 518.659 153.188C518.601 153.082 518.548 152.971 518.501 152.854C518.454 152.736 518.407 152.622 518.36 152.511C518.993 152.358 519.6 152.145 520.18 151.869C520.76 151.594 521.299 151.251 521.797 150.841H518.545V150.173H522.113V149.461C521.639 149.479 521.164 149.493 520.689 149.505C520.221 149.517 519.749 149.528 519.274 149.54C519.233 149.429 519.189 149.32 519.143 149.215C519.096 149.104 519.046 148.992 518.993 148.881C519.444 148.875 519.928 148.869 520.443 148.863C520.959 148.857 521.486 148.843 522.025 148.819C522.564 148.79 523.089 148.749 523.599 148.696C524.108 148.644 524.583 148.57 525.022 148.477L525.708 149.118C525.228 149.165 524.747 149.221 524.267 149.285C523.792 149.35 523.314 149.396 522.834 149.426V150.173H526.464V150.841H523.168C523.66 151.269 524.205 151.608 524.803 151.86C525.4 152.106 526.016 152.291 526.648 152.414C526.596 152.531 526.543 152.651 526.49 152.774C526.438 152.892 526.388 153.009 526.341 153.126C526.007 153.038 525.685 152.933 525.374 152.81V156.562H524.618V156.211H520.391V156.624H519.635ZM519.767 152.748H525.233C524.794 152.561 524.369 152.338 523.959 152.08C523.555 151.822 523.18 151.526 522.834 151.192V152.555H522.113V151.219C521.773 151.541 521.401 151.828 520.997 152.08C520.599 152.326 520.188 152.549 519.767 152.748ZM520.391 154.163H524.618V153.372H520.391V154.163ZM520.391 155.587H524.618V154.778H520.391V155.587ZM532.467 156.466C532.373 156.466 532.241 156.463 532.071 156.457C531.907 156.457 531.731 156.454 531.544 156.448C531.362 156.442 531.189 156.428 531.025 156.404C530.867 156.387 530.744 156.36 530.656 156.325C530.533 156.272 530.431 156.208 530.349 156.132C530.272 156.056 530.234 155.944 530.234 155.798V154.031H533.337V153.24H530.401C530.261 153.375 530.111 153.501 529.953 153.618C529.801 153.735 529.643 153.847 529.479 153.952C529.432 153.835 529.382 153.724 529.329 153.618C529.276 153.507 529.221 153.396 529.162 153.284C529.502 153.108 529.81 152.895 530.085 152.643C530.366 152.385 530.601 152.089 530.788 151.755H529.197V151.096H530.797V150.059H529.61V149.399H530.797V148.538H531.491V149.399H533.056V148.538H533.75V149.399H535.051V150.059H533.75V151.096H535.49V151.755H533.75C533.879 151.96 534.049 152.153 534.26 152.335C534.471 152.511 534.696 152.669 534.937 152.81C535.177 152.944 535.408 153.053 535.631 153.135L535.341 153.82C534.866 153.633 534.43 153.369 534.031 153.029V154.655H530.938V155.499C530.938 155.575 530.97 155.634 531.034 155.675C531.063 155.692 531.137 155.707 531.254 155.719C531.371 155.73 531.509 155.739 531.667 155.745C531.825 155.751 531.983 155.757 532.142 155.763C532.3 155.769 532.44 155.771 532.563 155.771C532.687 155.771 532.769 155.771 532.81 155.771C532.862 155.771 532.962 155.769 533.108 155.763C533.255 155.757 533.416 155.748 533.592 155.736C533.768 155.725 533.926 155.707 534.066 155.684C534.207 155.66 534.295 155.631 534.33 155.596C534.377 155.549 534.412 155.473 534.436 155.367C534.459 155.256 534.477 155.145 534.488 155.033C534.5 154.916 534.506 154.828 534.506 154.77C534.635 154.816 534.761 154.863 534.884 154.91C535.013 154.951 535.142 154.995 535.271 155.042C535.259 155.147 535.238 155.279 535.209 155.438C535.18 155.59 535.139 155.739 535.086 155.886C535.033 156.026 534.96 156.135 534.866 156.211C534.802 156.264 534.69 156.305 534.532 156.334C534.38 156.369 534.201 156.396 533.996 156.413C533.797 156.431 533.595 156.442 533.39 156.448C533.19 156.454 533.006 156.457 532.836 156.457C532.672 156.463 532.549 156.466 532.467 156.466ZM529.118 149.883C528.919 149.766 528.714 149.66 528.503 149.566C528.298 149.473 528.093 149.379 527.888 149.285L528.23 148.608C528.436 148.702 528.644 148.79 528.854 148.872C529.071 148.948 529.279 149.045 529.479 149.162L529.118 149.883ZM531.491 151.096H533.056V150.059H531.491V151.096ZM528.758 152.159C528.559 152.048 528.351 151.948 528.134 151.86C527.917 151.772 527.7 151.69 527.483 151.614L527.782 150.92C528.005 150.99 528.225 151.066 528.441 151.148C528.658 151.23 528.869 151.324 529.074 151.43L528.758 152.159ZM530.973 152.616H533.609C533.492 152.487 533.381 152.353 533.275 152.212C533.17 152.071 533.082 151.919 533.012 151.755H531.535C531.465 151.913 531.38 152.062 531.28 152.203C531.187 152.344 531.084 152.481 530.973 152.616ZM528.222 156.554L527.483 156.141C527.688 155.654 527.873 155.159 528.037 154.655C528.201 154.146 528.345 153.633 528.468 153.117L529.136 153.39C529.024 153.923 528.887 154.453 528.723 154.98C528.564 155.508 528.397 156.032 528.222 156.554Z" fill="#B73C55"/>
<path d="M566 34.5H559L562 32V29.5L557 28V24H552L550.5 28H546.5L550.5 25.5V22H539.5V20.5H534.5L529.5 25.5H525.5V28H518.5V32H513V36.5H507.5L505.5 42.5H503V40H499.5V42.5L496 49.5H491.5L488.5 57.5H483V61.5H480V64.5H483L484 72.5H487.5V75H491.5V72.5H494.5L496 71L499.5 72.5V74H504L505.5 76H507.5L512 74L515.5 72.5L523.5 71V74H516.5V77L518.5 79.5L519.5 84L525.5 83V78H526V86.5L530.5 86V84H532V89.5L538 93.5L540.5 91L542 86H545.5L552 93.5L556 88L557 95L560 99L566 101V99L565 95H562V93.5H567V86H563.5V83H560L559 77L556 76L555 72.5L559 71V66L562 67.5H565L568 64.5V67.5L570 69V71L571 76L574 78L575.5 82L581 83L579 79.5L577.5 76H581V72.5H584.5V66L581 63.5L582 57.5L583 60H585.5L587.5 59L586.5 55.5L585.5 51L579.5 51.5L579 46.5H576.5V48.5H575V53.5L572.5 51.5L572 48H574L575.5 46L574 44.5V41H572V46H570L569 42.5H566L563.5 49.5H560L562 55.5L559 57.5V52.5H552L547 55.5V62.5L546.5 57.5L543.5 52.5H539.5V51H543.5V49.5H546.5V47H552V41H557L559 39L560 41L556 44.5L557 47L572 36.5V34.5L569 33M566 34.5V25.5H569V33M566 34.5L569 33M553.5 121H551.5V118L556 116.5V119.5L555 120L554 120.5L553.5 121ZM553.5 121V126.5H556V125H557.5L559.5 124.5V120.5L557 119.5L556 120.5L554.5 121H553.5ZM561 22.5L568 22V24.5L564 25L563 29L561 28V22.5ZM584.5 22.5L585.5 28H589.5V22L584.5 22.5ZM560 100.5L559.5 105.5H565L564 101.5L562 101L560 100.5ZM565 69L564 77H567L568 83L571 84V79.5L569 76L568 72.5L567 69H565ZM562 70V74.5H563.5L563 70H562ZM560 73L557 72.5V75L560 76V73ZM573 82.5V85.5H576.5L577 88H579.5L580.5 85.5L579 84.5V84L576.5 83.5L575.5 82.5H573ZM573 66V69L575.5 71L576.5 72.5H577.5L579 70L576.5 69L575 67.5L573 66ZM506.5 67.5L505.5 71H507.5L508.5 67.5H506.5ZM515.5 75H513L512 77H510V79.5H508.5L507.5 82H504L494.5 90.5H490L491.5 86.5L490 83.5H484L478.5 86.5V93.5L477 96.5L476 99H473V101.5L468.5 101V102.5H473V105.5H470V107L467 108.5V113.5L470 115.5V119L476 117L478.5 113.5L480 112.5L481.5 115.5H487.5L490 112.5L485.5 111.5L488.5 110.5L490 109.5H493.5V107L495.5 106.5L496 113.5H501L504 111.5L505.5 110.5V107L502 106.5V104.5H504V102.5L502 100.5V99H505.5H506.5V92.5L504 91L504.5 89H507.5L510 88L508.5 84.5H510L511 86.5H514V81H515.5V75ZM508.5 92.5V95.5L509.5 97H511.5L512 94.5V92L510 91L508.5 92.5ZM507.5 100.5H510.5L512 98.5H515V102.5H512L512.5 105V106.5H509L508.5 103.5L506.5 103L506 100.5H507.5ZM479 107V109.5H481.5V107.5L479 107ZM485.5 93V96H489L488.5 92.5L485.5 93ZM497.5 116V119.5H501L501.5 116H497.5ZM506.5 113.5H505V118H511V114H509V109.5H507L506.5 113.5ZM485.5 122V119H481.5V122.5L485.5 122ZM480 124.5V129H485V124.5H480ZM526 111.5H523L522.5 108H524V104.5H527.5L528 109.5H531.5V111.5L535.5 112.5V116H532.5V120.5H530V122H528L526.5 120.5H524.5L524 116.5H526.5L526 111.5ZM535.5 95L540.5 94.5L541 92H548L548.5 93.5H550.5L552 97L555 97.5L556 104.5H554V106.5L554.5 108.5L555 111.5H557V113.5L554.5 114H550.5V110.5L549.5 109.5V105.5L548 108L546 109L546.5 111H548V114L548.5 118H545.5L544.5 111.5H542V106.5H540.5L540 104.5H538V108L535.5 107.5L532.5 106.5L531.5 104.5H529.5L528 101.5L526.5 98.5L524.5 97.5V94.5L526.5 93L530.5 91L533 92L535.5 95ZM560.5 117.5V119.5V121H563V119V117L560.5 117.5Z" stroke="#B73C55" stroke-width="0.5"/>
<path d="M321 383.5V134H1V554H313M321 414.5V431" stroke="#B73C55"/>
<path d="M311 395.5V144H11V544H311V404" stroke="#B73C55"/>
<rect x="11.5" y="236.5" width="299" height="9" stroke="#B73C55"/>
<path d="M115 144L115 236.768M105 236.768L105 144" stroke="#B73C55"/>
<path d="M218 144L218 236.768M208 236.768L208 144" stroke="#B73C55"/>
<path d="M115 245L115 337.768M105 337.768L105 245" stroke="#B73C55"/>
<path d="M218 245L218 337.768M208 337.768L208 245" stroke="#B73C55"/>
<path d="M115 348L115 440.768M105 440.768L105 348" stroke="#B73C55"/>
<path d="M218 348L218 440.768M208 440.768L208 348" stroke="#B73C55"/>
<path d="M115 450L115 544M105 544L105 450" stroke="#B73C55"/>
<path d="M218 450L218 544M208 544L208 450" stroke="#B73C55"/>
<rect x="11.5" y="338.5" width="299" height="9" stroke="#B73C55"/>
<rect x="11.5" y="440.5" width="299" height="9" stroke="#B73C55"/>
<path d="M362 371.5V140L320.5 134.5" stroke="#B73C55"/>
<path d="M68 144L68 181M11.9983 236L23.9984 233.5M115.498 236L126.498 233.5M267 144L267 224.5M167.5 144L167.5 177.5M167.5 300L167.5 296M68 246L68 311M167.5 246L167.5 285.5M218.5 440L246 415.5M310.5 394.5L286.5 394.5M310.5 311L292 311M283.5 311L289.5 311M208 311L173.5 311M267 291.5L267 245.5M251.5 319L217.5 338.5M267 347.5L267 387M105 311L68 311M149 318L115 337.5M218 236L267 224.5M267 224.5L310.5 224.5M183.5 224.5L187.5 224.5M11.9983 338.5L68 311" stroke="#B73C55"/>
<path d="M30.2388 191.881L34.0257 191.408" stroke="#B73C55"/>
<path d="M17.0639 183.719L23.4677 182.743C23.7407 182.701 23.9958 182.889 24.0374 183.162L31.5832 232.66C31.6248 232.933 31.4372 233.188 31.1642 233.229L24.7604 234.205C24.4874 234.247 24.2324 234.059 24.1908 233.786L16.645 184.289C16.6034 184.016 16.7909 183.761 17.0639 183.719Z" stroke="#B73C55"/>
<path d="M23.6116 182.887L43.9661 182.414L44.9128 189.041" stroke="#B73C55"/>
<rect x="26.938" y="192.017" width="3.39419" height="44.9291" rx="0.5" transform="rotate(-8.69423 26.938 192.017)" stroke="#B73C55"/>
<rect x="47.6004" y="187.802" width="11.6418" height="46.3412" rx="0.5" transform="rotate(-2.05775 47.6004 187.802)" stroke="#B73C55"/>
<rect x="34.0896" y="189.536" width="11.6418" height="46.3412" rx="0.5" transform="rotate(-4.45583 34.0896 189.536)" stroke="#B73C55"/>
<rect x="70.5" y="180.5" width="7" height="53" rx="0.5" stroke="#B73C55"/>
<rect x="78.5" y="180.5" width="6" height="53" rx="0.5" stroke="#B73C55"/>
<rect x="85.5" y="179.5" width="10" height="54" rx="0.5" stroke="#B73C55"/>
<path d="M105 233.537H97.0356C96.4834 233.537 96.0356 233.089 96.0356 232.537V180.574C96.0356 180.021 96.4834 179.574 97.0356 179.574H105" stroke="#B73C55"/>
<rect x="62.5" y="180.5" width="7" height="53" rx="0.5" stroke="#B73C55"/>
<path d="M45.8596 189.041H47.7531" stroke="#B73C55"/>
<path d="M59 188H62" stroke="#B73C55"/>
<path d="M31.5 233L33 232.5" stroke="#B73C55"/>
<rect x="130.691" y="181.276" width="20.2908" height="53.3246" rx="0.5" transform="rotate(-8.27752 130.691 181.276)" stroke="#B73C55"/>
<path d="M208 200L192.87 174.508C192.586 174.029 191.964 173.874 191.489 174.165L184.726 178.298C184.257 178.584 184.107 179.195 184.39 179.666L208 219" stroke="#B73C55"/>
<rect x="117.567" y="170.061" width="10.3754" height="65.1764" rx="0.5" transform="rotate(-8.27752 117.567 170.061)" stroke="#B73C55"/>
<rect x="151.476" y="181.363" width="4.63818" height="53.3246" rx="0.5" transform="rotate(-8.27752 151.476 181.363)" stroke="#B73C55"/>
<rect x="157.127" y="180.994" width="4.63818" height="53.3246" rx="0.5" transform="rotate(-8.27752 157.127 180.994)" stroke="#B73C55"/>
<rect x="162.766" y="182.998" width="4.63818" height="59.3692" rx="0.5" transform="rotate(-30.6694 162.766 182.998)" stroke="#B73C55"/>
<path d="M208 230L182.575 188.028C182.287 187.553 182.442 186.934 182.92 186.65L185.966 184.844C186.441 184.562 187.054 184.719 187.336 185.193L208 220" stroke="#B73C55"/>
<rect x="170.432" y="184.694" width="2.70751" height="59.3692" rx="0.5" transform="rotate(-30.6694 170.432 184.694)" stroke="#B73C55"/>
<path d="M173.452 183.101L174.921 182.23C175.157 182.09 175.463 182.167 175.605 182.402L205.624 232.397C205.767 232.635 205.689 232.944 205.45 233.085L203.982 233.956C203.745 234.096 203.439 234.019 203.298 233.783L173.279 183.788C173.136 183.551 173.214 183.242 173.452 183.101Z" stroke="#B73C55"/>
<path d="M169.747 232.506L184.347 226.855L182.463 216.494" stroke="#B73C55"/>
<path d="M175.87 182.585H185.76" stroke="#B73C55"/>
<path d="M205.5 232.5L208 231.5" stroke="#B73C55"/>
<path d="M192.353 174.108L207.5 174.108" stroke="#B73C55"/>
<path d="M150.5 178.5L169.5 177.5L170 180.5" stroke="#B73C55"/>
<path d="M127.5 169L145.63 168.93L147.463 178.42" stroke="#B73C55"/>
<path d="M161.5 180.5L179 180.5L179.5 181" stroke="#B73C55"/>
<path d="M167 181.158L182.5 181L183.5 182.5" stroke="#B73C55"/>
<path d="M260.326 392.302C257.836 389.98 253.86 388.5 250.187 388.5C242.487 388.5 236.245 394.741 236.245 402.441C236.245 410.141 242.487 416.383 250.187 416.383C254.182 416.383 257.784 414.005 260.326 411.313" stroke="#B73C55"/>
<path d="M258.425 398.639C259.364 390.785 264.261 386.598 272.367 386.598C281.117 386.598 288.21 393.057 288.21 401.807C288.21 410.557 281.117 417.65 272.367 417.65C264.044 417.65 258.437 409.964 257.791 401.807" stroke="#B73C55"/>
<path d="M260.326 396.737L244.483 411.946L247.018 411.313L260.96 398.638" stroke="#B73C55" stroke-linejoin="round"/>
<path d="M273 385.964L304.685 356.814L305.319 357.448L274.267 385.964" stroke="#B73C55" stroke-width="0.5"/>
<path d="M272.366 385.965L276.169 364.418H276.802L273 385.965" stroke="#B73C55" stroke-width="0.5"/>
<path d="M270.465 393.569L267.931 412.58V415.749L269.198 412.58L271.733 392.302" stroke="#B73C55" stroke-width="0.5"/>
<path d="M260.326 393.569C269.198 387.866 285.041 396.738 286.942 406.243" stroke="#B73C55"/>
<path d="M260.326 391.563C269.198 385.86 285.674 395.47 287.575 404.976" stroke="#B73C55" stroke-width="0.5"/>
<path d="M261.594 390.219C270.259 384.483 286.352 394.149 288.209 403.708" stroke="#B73C55" stroke-width="0.5"/>
<path d="M262.861 388.952C271.114 383.216 286.441 392.881 288.209 402.441" stroke="#B73C55" stroke-width="0.5"/>
<path d="M271.099 386.598C279.337 386.598 286.971 393.677 288.209 402.441" stroke="#B73C55" stroke-width="0.5"/>
<path d="M247.556 415.521C239.861 409.447 242.87 392.841 250.649 388.296" stroke="#B73C55"/>
<path d="M245.793 416.128C238.098 410.054 241.564 392.667 249.344 388.123" stroke="#B73C55" stroke-width="0.5"/>
<path d="M244.229 415.42C236.568 409.538 240.198 392.471 248.038 387.949" stroke="#B73C55" stroke-width="0.5"/>
<path d="M242.732 414.689C235.196 409.169 239.057 392.776 246.925 388.332" stroke="#B73C55" stroke-width="0.5"/>
<path d="M238.173 408.16C235.682 400.919 239.597 392.069 246.925 388.332" stroke="#B73C55" stroke-width="0.5"/>
<path d="M283.14 399.272C283.14 403.708 279.971 414.481 270.466 417.016" stroke="#B73C55" stroke-width="0.5"/>
<path d="M284.407 401.173C284.407 405.292 281.239 415.296 271.733 417.65" stroke="#B73C55" stroke-width="0.5"/>
<path d="M285.675 403.075C285.041 406.877 283.774 411.313 278.704 416.383" stroke="#B73C55" stroke-width="0.5"/>
<path d="M281.872 398.005C281.872 402.758 277.436 413.667 267.931 416.382" stroke="#B73C55" stroke-width="0.5"/>
<path d="M279.971 396.737C279.971 401.49 274.902 413.033 265.396 415.749" stroke="#B73C55" stroke-width="0.5"/>
<path d="M277.436 394.836C277.436 398.554 275.11 406.424 269.549 410.977M264.128 413.848C265.515 413.451 266.781 412.867 267.931 412.144" stroke="#B73C55"/>
<path d="M246.855 392.525C249.371 392.101 254.484 392.69 258.787 395.818" stroke="#B73C55" stroke-width="0.5"/>
<path d="M248.277 390.939C250.573 390.553 255.214 391.171 259.208 394.203" stroke="#B73C55" stroke-width="0.5"/>
<path d="M245.981 394.019C248.668 393.566 253.965 394.692 258.425 398.166" stroke="#B73C55" stroke-width="0.5"/>
<path d="M245.217 396.165C247.694 395.748 252.626 396.877 257.029 399.906" stroke="#B73C55" stroke-width="0.5"/>
<path d="M244.015 399.06C246.364 398.664 250.847 399.23 255.003 401.549C255.586 401.874 256.163 402.234 256.726 402.631C257.639 403.273 256.977 402.864 257.791 403.709" stroke="#B73C55"/>
<path d="M259.494 409.658C257.552 411.632 252.732 414.416 247.087 414.532" stroke="#B73C55" stroke-width="0.5"/>
<path d="M254.097 401.035C252.326 402.836 247.9 405.292 242.582 405.291" stroke="#B73C55" stroke-width="0.5"/>
<path d="M251.454 399.906C250.138 401.244 246.763 402.983 242.582 402.756" stroke="#B73C55" stroke-width="0.5"/>
<path d="M248.285 399.272C247.34 400.233 245.117 400.54 243.216 400.54" stroke="#B73C55" stroke-width="0.5"/>
<path d="M259.356 407.832C257.15 410.075 251.501 412.673 245.117 412.58" stroke="#B73C55" stroke-width="0.5"/>
<path d="M258.728 405.525C257.154 407.126 253.656 408.793 249.266 409.581M243.849 410.045C244.766 410.051 245.666 410.014 246.542 409.939" stroke="#B73C55" stroke-width="0.5"/>
<path d="M258.031 402.304C257.152 403.197 255.7 404.221 253.863 405.12M243.195 407.214C244.416 407.406 243.591 407.485 244.776 407.443C245.507 407.417 246.228 407.351 246.933 407.252C247.97 407.106 248.974 406.889 249.93 406.619" stroke="#B73C55"/>
<path d="M264.128 392.302C260.326 395.47 258.425 403.708 260.326 409.412" stroke="#B73C55" stroke-width="0.5"/>
<path d="M266.664 391.668C262.425 394.719 260.108 407.722 262.227 413.214" stroke="#B73C55" stroke-width="0.5"/>
<path d="M269.198 391.668C264.959 394.719 261.593 406.877 264.926 413.848" stroke="#B73C55"/>
<path d="M271.761 392.302C267.522 395.353 265.178 407.088 267.297 412.58" stroke="#B73C55" stroke-width="0.5"/>
<path d="M274.901 393.569C272.366 397.371 271.733 403.074 272.366 408.144" stroke="#B73C55" stroke-width="0.5"/>
<path d="M276.169 394.203C274.56 398.318 274 399.639 274.56 404.976" stroke="#B73C55" stroke-width="0.5"/>
<rect x="276.132" y="362.169" width="2.03501" height="2.03484" transform="rotate(8.81778 276.132 362.169)" stroke="#B73C55" stroke-width="0.5"/>
<rect x="306.214" y="354.354" width="2.00383" height="2.94691" transform="rotate(44.3814 306.214 354.354)" stroke="#B73C55" stroke-width="0.5"/>
<rect x="13.5" y="349.5" width="89" height="20.4773" stroke="#B73C55"/>
<path d="M13.5 349.5H102.5V438.5H13.5V349.5Z" stroke="#B73C55"/>
<path d="M102.5 349.5L105 348.5" stroke="#B73C55"/>
<path d="M102.5 438.5L105 437" stroke="#B73C55"/>
<path d="M11.5 440.5L15 438.5" stroke="#B73C55"/>
<line x1="13.8626" y1="349.519" x2="20.8626" y2="347.519" stroke="#B73C55"/>
<rect x="117.1" y="349.5" width="89" height="20.4773" stroke="#B73C55"/>
<path d="M117.1 349.5H206.1V438.5H117.1V349.5Z" stroke="#B73C55"/>
<path d="M206.1 349.5L208.071 348.765" stroke="#B73C55"/>
<path d="M206.1 438.5L208.082 437.259" stroke="#B73C55"/>
<path d="M115.1 440.5L118.6 438.5" stroke="#B73C55"/>
<line x1="117.463" y1="349.519" x2="124.463" y2="347.519" stroke="#B73C55"/>
<rect x="13.1001" y="452.5" width="89" height="20.4773" stroke="#B73C55"/>
<path d="M13.1001 452.5H102.1V541.5H13.1001V452.5Z" stroke="#B73C55"/>
<path d="M102.1 452.5L104.6 451.5" stroke="#B73C55"/>
<path d="M102.1 541.5L104.6 540" stroke="#B73C55"/>
<path d="M11.1 543.5L14.6001 541.5" stroke="#B73C55"/>
<line x1="13.4481" y1="452.524" x2="22.848" y2="449.524" stroke="#B73C55"/>
<rect x="117.1" y="452.5" width="89" height="20.4773" stroke="#B73C55"/>
<path d="M117.1 452.5H206.1V541.5H117.1V452.5Z" stroke="#B73C55"/>
<path d="M206.1 452.5L208.211 451.694" stroke="#B73C55"/>
<path d="M206.1 541.5L208.066 540.267" stroke="#B73C55"/>
<path d="M115.1 543.5L118.6 541.5" stroke="#B73C55"/>
<line x1="117.432" y1="452.529" x2="125.832" y2="449.529" stroke="#B73C55"/>
<rect x="220.1" y="452.5" width="89" height="20.4773" stroke="#B73C55"/>
<path d="M220.1 452.5H309.1V541.5H220.1V452.5Z" stroke="#B73C55"/>
<path d="M309.1 452.5L311.151 451.724" stroke="#B73C55"/>
<path d="M309.1 541.5L311.153 540.223" stroke="#B73C55"/>
<path d="M218.1 543.5L221.6 541.5" stroke="#B73C55"/>
<line x1="220.432" y1="452.529" x2="228.832" y2="449.529" stroke="#B73C55"/>
<path d="M965.111 618.324L1100.15 753.824C1102.97 756.661 1100.96 761.5 1096.96 761.5H250.905C247.6 761.5 245.423 758.057 246.839 755.072L311.097 619.572C311.841 618.001 313.424 617 315.163 617H645H740.5H961.924C963.12 617 964.267 617.476 965.111 618.324Z" stroke="#B73C55"/>
<path d="M956.11 627.806L1074.03 744.806C1076.88 747.635 1074.88 752.5 1070.86 752.5H271.92C268.612 752.5 266.435 749.051 267.858 746.065L323.594 629.065C324.34 627.498 325.921 626.5 327.656 626.5H644.182H734.499H952.94C954.128 626.5 955.267 626.969 956.11 627.806Z" stroke="#B73C55"/>
<path d="M281.373 293.285C281.373 293.285 281.373 293.286 281.372 293.287C281.373 293.286 281.373 293.285 281.373 293.285ZM281.255 293.263C281.292 293.29 281.318 293.313 281.336 293.33C281.318 293.348 281.292 293.37 281.255 293.397C281.106 293.507 280.856 293.634 280.484 293.766C279.748 294.029 278.655 294.274 277.271 294.483C274.509 294.9 270.677 295.16 266.433 295.16C262.188 295.16 258.356 294.9 255.595 294.483C254.21 294.274 253.117 294.029 252.381 293.766C252.01 293.634 251.759 293.507 251.61 293.397C251.573 293.37 251.548 293.348 251.53 293.33C251.548 293.313 251.573 293.29 251.61 293.263C251.759 293.153 252.01 293.027 252.381 292.894C253.117 292.631 254.21 292.386 255.595 292.177C258.356 291.76 262.188 291.5 266.433 291.5C270.677 291.5 274.509 291.76 277.271 292.177C278.655 292.386 279.748 292.631 280.484 292.894C280.856 293.027 281.106 293.153 281.255 293.263ZM251.492 293.285C251.492 293.285 251.493 293.286 251.493 293.287C251.493 293.286 251.492 293.285 251.492 293.285ZM251.492 293.375C251.492 293.375 251.493 293.374 251.493 293.373C251.493 293.374 251.492 293.375 251.492 293.375ZM281.372 293.373C281.373 293.374 281.373 293.375 281.373 293.375C281.373 293.375 281.373 293.374 281.372 293.373Z" stroke="#B73C55"/>
<path d="M281.13 293.331V326.418C281.13 327.963 274.55 329.215 266.433 329.215C258.315 329.215 251.735 327.963 251.735 326.418V293.331" stroke="#B73C55"/>
<rect x="281.079" y="298.849" width="10.5745" height="22.149" rx="4.5" stroke="#B73C55"/>
<rect x="283.651" y="301.421" width="5.43027" height="17.0048" rx="2.71514" stroke="#B73C55"/>
<path d="M259.125 308.25H265.859L265.855 312.75H259.125V313.25H266.105H273.085V312.75H266.355L266.359 308.25H270.375H273.085V307.75H270.375H266.36L266.363 303.625L265.863 303.625L265.86 307.75H259.125V308.25ZM258.902 303.25H273.151C273.153 303.315 273.156 303.393 273.159 303.481C273.168 303.783 273.18 304.217 273.193 304.741C273.218 305.79 273.244 307.204 273.249 308.663C273.254 310.122 273.237 311.624 273.176 312.85C273.145 313.463 273.104 314.004 273.049 314.435C272.993 314.876 272.927 315.17 272.859 315.312C272.791 315.455 272.642 315.647 272.409 315.881C272.18 316.11 271.886 316.365 271.547 316.634C270.87 317.172 270.027 317.757 269.202 318.299C268.377 318.84 267.573 319.337 266.976 319.698C266.677 319.878 266.43 320.025 266.258 320.126C266.196 320.162 266.144 320.193 266.103 320.217C266.066 320.199 266.021 320.177 265.969 320.151C265.807 320.07 265.574 319.951 265.291 319.802C264.725 319.504 263.959 319.084 263.16 318.593C262.361 318.103 261.534 317.545 260.843 316.973C260.145 316.396 259.611 315.825 259.368 315.312C259.248 315.061 259.145 314.681 259.06 314.194C258.975 313.711 258.911 313.138 258.864 312.508C258.77 311.247 258.744 309.773 258.751 308.364C258.759 306.957 258.8 305.619 258.839 304.633C258.858 304.14 258.877 303.735 258.891 303.454C258.895 303.376 258.899 303.308 258.902 303.25Z" stroke="#B73C55" stroke-width="0.5"/>
<path d="M258.481 315.296C258.482 315.297 258.483 315.297 258.483 315.298C258.617 315.477 258.808 315.723 259.033 315.994C259.478 316.529 260.075 317.178 260.647 317.572C261.214 317.963 261.848 318.089 262.393 318.197C262.435 318.205 262.477 318.213 262.517 318.221C263.111 318.341 263.567 318.46 263.88 318.821C263.996 318.954 264.039 319.182 263.981 319.492C263.924 319.795 263.778 320.125 263.595 320.396C263.404 320.676 263.204 320.85 263.062 320.899C263 320.92 262.97 320.912 262.954 320.903C262.932 320.892 262.884 320.853 262.836 320.729C262.549 319.989 261.859 319.645 261.234 319.432C261.011 319.355 260.78 319.291 260.571 319.233C260.487 319.21 260.407 319.187 260.331 319.165C260.053 319.084 259.852 319.012 259.728 318.928C259.42 318.719 258.785 318.201 258.217 317.724C257.936 317.488 257.674 317.266 257.482 317.102C257.429 317.057 257.381 317.015 257.339 316.98L258.481 315.296Z" stroke="#B73C55" stroke-width="0.5"/>
<path d="M273.795 315.129C273.791 315.134 273.787 315.139 273.783 315.144C273.642 315.327 273.442 315.58 273.207 315.857C272.74 316.407 272.117 317.072 271.526 317.48C270.94 317.884 270.291 318.021 269.728 318.141C269.685 318.15 269.643 318.159 269.601 318.168C268.99 318.299 268.515 318.429 268.182 318.805C268.057 318.946 268.01 319.181 268.064 319.491C268.116 319.796 268.259 320.126 268.443 320.396C268.632 320.675 268.833 320.846 268.978 320.893C269.04 320.913 269.075 320.905 269.098 320.893C269.125 320.879 269.178 320.835 269.229 320.707C269.534 319.959 270.242 319.601 270.886 319.375C271.116 319.294 271.353 319.225 271.568 319.162C271.655 319.137 271.738 319.113 271.817 319.089C272.103 319.002 272.314 318.925 272.445 318.836C272.766 318.618 273.427 318.082 274.018 317.59C274.312 317.346 274.584 317.116 274.784 316.947C274.842 316.898 274.894 316.853 274.939 316.815L273.795 315.129Z" stroke="#B73C55" stroke-width="0.5"/>
<path d="M258.943 314.902L258.665 315.18C258.474 315.371 258.184 315.409 257.962 315.275C257.841 315.202 257.719 315.125 257.615 315.055C257.517 314.989 257.448 314.937 257.412 314.903C257.41 314.898 257.407 314.891 257.405 314.88C257.395 314.846 257.387 314.797 257.38 314.73C257.376 314.697 257.373 314.66 257.369 314.619C257.358 314.509 257.346 314.375 257.323 314.256C257.291 314.094 257.229 313.887 257.069 313.746C256.951 313.642 256.807 313.595 256.647 313.595C256.741 313.473 256.873 313.326 257.029 313.169C257.273 312.925 257.557 312.68 257.808 312.504C257.934 312.416 258.045 312.35 258.133 312.31C258.216 312.273 258.25 312.272 258.25 312.271L258.943 314.902ZM258.943 314.902C259.063 314.781 259.089 314.618 259.012 314.396C258.934 314.169 258.76 313.927 258.563 313.738C258.403 313.584 258.347 313.379 258.326 313.202C258.307 313.05 258.311 312.885 258.314 312.746C258.314 312.725 258.315 312.704 258.315 312.685C258.318 312.518 258.314 312.404 258.292 312.327C258.282 312.294 258.272 312.282 258.27 312.28C258.27 312.28 258.27 312.28 258.27 312.279C258.269 312.279 258.266 312.275 258.25 312.271L258.943 314.902Z" stroke="#B73C55" stroke-width="0.5"/>
<path d="M273.578 314.902L273.856 315.18C274.048 315.371 274.337 315.409 274.559 315.275C274.68 315.202 274.802 315.125 274.906 315.055C275.004 314.989 275.073 314.937 275.11 314.903C275.111 314.898 275.114 314.891 275.117 314.88C275.126 314.846 275.134 314.797 275.142 314.73C275.145 314.697 275.149 314.66 275.152 314.619C275.163 314.509 275.175 314.375 275.199 314.256C275.23 314.094 275.292 313.887 275.453 313.746C275.57 313.642 275.714 313.595 275.874 313.595C275.78 313.473 275.648 313.326 275.492 313.169C275.248 312.925 274.964 312.68 274.713 312.504C274.587 312.416 274.477 312.35 274.388 312.31C274.305 312.273 274.271 312.272 274.271 312.271L273.578 314.902ZM273.578 314.902C273.458 314.781 273.433 314.618 273.509 314.396C273.587 314.169 273.761 313.927 273.958 313.738C274.118 313.584 274.174 313.379 274.195 313.202C274.214 313.05 274.211 312.885 274.208 312.746C274.207 312.725 274.207 312.704 274.206 312.685C274.203 312.518 274.207 312.404 274.23 312.327C274.239 312.294 274.249 312.282 274.252 312.28C274.252 312.28 274.252 312.28 274.252 312.279C274.252 312.279 274.255 312.275 274.271 312.271L273.578 314.902Z" stroke="#B73C55" stroke-width="0.5"/>
<path d="M271.659 320.583C271.131 320.91 270.2 321.455 269.153 321.917C268.1 322.382 266.957 322.75 266 322.75C265.043 322.75 263.9 322.382 262.847 321.917C261.8 321.455 260.869 320.91 260.341 320.583C260.128 320.45 260 320.213 260 319.953C260 319.33 260.728 318.907 261.308 319.219C262.606 319.915 264.471 320.75 266 320.75C267.529 320.75 269.394 319.915 270.692 319.219C271.272 318.907 272 319.33 272 319.953C272 320.213 271.872 320.45 271.659 320.583Z" stroke="#B73C55" stroke-width="0.5"/>
<path d="M254.108 301V300.937C254.216 300.937 254.279 300.917 254.297 300.877V299.368C254.279 299.328 254.216 299.308 254.108 299.308V299.245H254.867V299.308C254.759 299.308 254.696 299.328 254.678 299.368V300.877C254.696 300.917 254.759 300.937 254.867 300.937V301H254.108ZM255.084 301V300.937C255.192 300.937 255.255 300.917 255.273 300.877V299.368C255.255 299.328 255.192 299.308 255.084 299.308V299.245H255.627L256.266 300.64L256.905 299.245H257.454V299.308C257.346 299.308 257.283 299.328 257.265 299.368V300.877C257.283 300.917 257.346 300.937 257.454 300.937V301H256.695V300.937C256.803 300.937 256.866 300.917 256.884 300.877V299.53L256.212 301H256.062L255.375 299.512V300.877C255.393 300.917 255.456 300.937 255.564 300.937V301H255.084ZM257.671 301V300.937C257.779 300.937 257.842 300.917 257.86 300.877V299.368C257.842 299.328 257.779 299.308 257.671 299.308V299.245H258.469C258.715 299.245 258.902 299.292 259.03 299.386C259.16 299.48 259.225 299.585 259.225 299.701C259.225 299.851 259.165 299.972 259.045 300.064C258.925 300.156 258.745 300.202 258.505 300.202H258.241V300.877C258.259 300.917 258.322 300.937 258.43 300.937V301H257.671ZM258.241 299.347V300.1H258.4C258.554 300.1 258.662 300.07 258.724 300.01C258.788 299.948 258.82 299.846 258.82 299.704C258.82 299.466 258.668 299.347 258.364 299.347H258.241ZM259.352 301V300.937C259.46 300.937 259.523 300.917 259.541 300.877V299.368C259.523 299.328 259.46 299.308 259.352 299.308V299.245H260.591V299.536H260.528C260.528 299.428 260.508 299.365 260.468 299.347H259.922V300.037H260.267C260.307 300.019 260.327 299.956 260.327 299.848H260.39V300.328H260.327C260.327 300.22 260.307 300.157 260.267 300.139H259.922V300.898H260.531C260.581 300.876 260.626 300.813 260.666 300.709H260.726L260.654 301H259.352ZM260.861 301V300.937C260.969 300.937 261.032 300.917 261.05 300.877V299.368C261.032 299.328 260.969 299.308 260.861 299.308V299.245H261.599C261.847 299.245 262.035 299.29 262.163 299.38C262.291 299.47 262.355 299.573 262.355 299.689C262.355 299.799 262.322 299.896 262.256 299.98C262.19 300.062 262.092 300.122 261.962 300.16L262.361 300.874C262.381 300.916 262.447 300.937 262.559 300.937V301H262.43C262.272 301 262.155 300.991 262.079 300.973C262.005 300.955 261.949 300.912 261.911 300.844L261.548 300.202H261.431V300.877C261.449 300.917 261.512 300.937 261.62 300.937V301H260.861ZM261.431 299.347V300.1H261.53C261.666 300.1 261.77 300.07 261.842 300.01C261.914 299.948 261.95 299.842 261.95 299.692C261.95 299.576 261.909 299.49 261.827 299.434C261.747 299.376 261.636 299.347 261.494 299.347H261.431ZM262.628 301V300.937C262.736 300.937 262.799 300.917 262.817 300.877V299.368C262.799 299.328 262.736 299.308 262.628 299.308V299.245H263.387V299.308C263.279 299.308 263.216 299.328 263.198 299.368V300.877C263.216 300.917 263.279 300.937 263.387 300.937V301H262.628ZM264.482 301V300.937C264.574 300.937 264.632 300.925 264.656 300.901L264.488 300.442H263.912L263.756 300.883C263.776 300.919 263.838 300.937 263.942 300.937V301H263.45V300.937C263.56 300.937 263.623 300.916 263.639 300.874L264.221 299.245H264.464L265.052 300.874C265.066 300.916 265.13 300.937 265.244 300.937V301H264.482ZM264.197 299.644L263.948 300.343H264.452L264.197 299.644ZM265.302 301V300.937C265.41 300.937 265.473 300.917 265.491 300.877V299.368C265.473 299.328 265.41 299.308 265.302 299.308V299.245H266.061V299.308C265.953 299.308 265.89 299.328 265.872 299.368V300.898H266.496C266.546 300.876 266.591 300.813 266.631 300.709H266.691L266.619 301H265.302ZM268.459 299.317C268.291 299.317 268.161 299.386 268.069 299.524C267.979 299.662 267.934 299.848 267.934 300.082C267.934 300.354 267.983 300.563 268.081 300.709C268.179 300.855 268.309 300.928 268.471 300.928C268.569 300.928 268.658 300.895 268.738 300.829C268.82 300.761 268.876 300.686 268.906 300.604L269.029 300.64C268.983 300.75 268.91 300.843 268.81 300.919C268.712 300.993 268.579 301.03 268.411 301.03C268.143 301.03 267.927 300.943 267.763 300.769C267.599 300.595 267.517 300.388 267.517 300.148C267.517 299.87 267.611 299.645 267.799 299.473C267.987 299.301 268.206 299.215 268.456 299.215C268.514 299.215 268.586 299.23 268.672 299.26C268.758 299.29 268.807 299.305 268.819 299.305C268.843 299.305 268.855 299.285 268.855 299.245H268.924L268.948 299.668H268.882C268.87 299.586 268.818 299.507 268.726 299.431C268.634 299.355 268.545 299.317 268.459 299.317ZM269.589 300.1C269.589 300.236 269.603 300.363 269.631 300.481C269.661 300.599 269.715 300.703 269.793 300.793C269.871 300.883 269.969 300.928 270.087 300.928C270.177 300.928 270.254 300.905 270.318 300.859C270.382 300.811 270.431 300.747 270.465 300.667C270.499 300.587 270.523 300.505 270.537 300.421C270.553 300.335 270.561 300.244 270.561 300.148C270.561 300.014 270.546 299.887 270.516 299.767C270.486 299.647 270.432 299.542 270.354 299.452C270.276 299.362 270.179 299.317 270.063 299.317C269.973 299.317 269.896 299.341 269.832 299.389C269.768 299.437 269.719 299.501 269.685 299.581C269.651 299.661 269.626 299.744 269.61 299.83C269.596 299.914 269.589 300.004 269.589 300.1ZM269.442 300.763C269.27 300.583 269.184 300.37 269.184 300.124C269.184 299.878 269.271 299.665 269.445 299.485C269.619 299.305 269.829 299.215 270.075 299.215C270.321 299.215 270.531 299.305 270.705 299.485C270.879 299.665 270.966 299.878 270.966 300.124C270.966 300.37 270.878 300.583 270.702 300.763C270.528 300.941 270.319 301.03 270.075 301.03C269.827 301.03 269.616 300.941 269.442 300.763ZM271.156 301V300.937C271.264 300.937 271.327 300.917 271.345 300.877V299.368C271.327 299.328 271.264 299.308 271.156 299.308V299.245H271.915V299.308C271.807 299.308 271.744 299.328 271.726 299.368V300.898H272.35C272.4 300.876 272.445 300.813 272.485 300.709H272.545L272.473 301H271.156ZM272.65 301V300.937C272.758 300.937 272.821 300.917 272.839 300.877V299.368C272.821 299.328 272.758 299.308 272.65 299.308V299.245H273.409V299.308C273.301 299.308 273.238 299.328 273.22 299.368V300.898H273.844C273.894 300.876 273.939 300.813 273.979 300.709H274.039L273.967 301H272.65ZM274.144 301V300.937C274.252 300.937 274.315 300.917 274.333 300.877V299.368C274.315 299.328 274.252 299.308 274.144 299.308V299.245H275.383V299.536H275.32C275.32 299.428 275.3 299.365 275.26 299.347H274.714V300.037H275.059C275.099 300.019 275.119 299.956 275.119 299.848H275.182V300.328H275.119C275.119 300.22 275.099 300.157 275.059 300.139H274.714V300.898H275.323C275.373 300.876 275.418 300.813 275.458 300.709H275.518L275.446 301H274.144ZM276.605 299.317C276.437 299.317 276.3 299.397 276.194 299.557C276.088 299.715 276.035 299.91 276.035 300.142C276.035 300.412 276.086 300.611 276.188 300.739C276.292 300.865 276.417 300.928 276.563 300.928C276.647 300.928 276.723 300.919 276.791 300.901V300.256C276.773 300.216 276.71 300.196 276.602 300.196V300.133H277.361V300.196C277.253 300.196 277.19 300.216 277.172 300.256V300.76C277.138 300.822 277.067 300.883 276.959 300.943C276.851 301.001 276.717 301.03 276.557 301.03C276.287 301.03 276.063 300.942 275.885 300.766C275.707 300.59 275.618 300.384 275.618 300.148C275.618 299.962 275.668 299.797 275.768 299.653C275.868 299.507 275.992 299.398 276.14 299.326C276.288 299.252 276.442 299.215 276.602 299.215C276.66 299.215 276.735 299.23 276.827 299.26C276.919 299.29 276.97 299.305 276.98 299.305C277.004 299.305 277.016 299.285 277.016 299.245H277.085L277.115 299.68H277.049C277.037 299.598 276.981 299.517 276.881 299.437C276.781 299.357 276.689 299.317 276.605 299.317ZM277.496 301V300.937C277.604 300.937 277.667 300.917 277.685 300.877V299.368C277.667 299.328 277.604 299.308 277.496 299.308V299.245H278.735V299.536H278.672C278.672 299.428 278.652 299.365 278.612 299.347H278.066V300.037H278.411C278.451 300.019 278.471 299.956 278.471 299.848H278.534V300.328H278.471C278.471 300.22 278.451 300.157 278.411 300.139H278.066V300.898H278.675C278.725 300.876 278.77 300.813 278.81 300.709H278.87L278.798 301H277.496Z" fill="#B73C55"/>
<path d="M261.108 326V325.937C261.216 325.937 261.279 325.917 261.297 325.877V324.368C261.279 324.328 261.216 324.308 261.108 324.308V324.245H261.867V324.308C261.759 324.308 261.696 324.328 261.678 324.368V325.898H262.302C262.352 325.876 262.397 325.813 262.437 325.709H262.497L262.425 326H261.108ZM262.963 325.1C262.963 325.236 262.977 325.363 263.005 325.481C263.035 325.599 263.089 325.703 263.167 325.793C263.245 325.883 263.343 325.928 263.461 325.928C263.551 325.928 263.628 325.905 263.692 325.859C263.756 325.811 263.805 325.747 263.839 325.667C263.873 325.587 263.897 325.505 263.911 325.421C263.927 325.335 263.935 325.244 263.935 325.148C263.935 325.014 263.92 324.887 263.89 324.767C263.86 324.647 263.806 324.542 263.728 324.452C263.65 324.362 263.553 324.317 263.437 324.317C263.347 324.317 263.27 324.341 263.206 324.389C263.142 324.437 263.093 324.501 263.059 324.581C263.025 324.661 263 324.744 262.984 324.83C262.97 324.914 262.963 325.004 262.963 325.1ZM262.816 325.763C262.644 325.583 262.558 325.37 262.558 325.124C262.558 324.878 262.645 324.665 262.819 324.485C262.993 324.305 263.203 324.215 263.449 324.215C263.695 324.215 263.905 324.305 264.079 324.485C264.253 324.665 264.34 324.878 264.34 325.124C264.34 325.37 264.252 325.583 264.076 325.763C263.902 325.941 263.693 326.03 263.449 326.03C263.201 326.03 262.99 325.941 262.816 325.763ZM264.53 326V325.937C264.638 325.937 264.701 325.917 264.719 325.877V324.368C264.701 324.328 264.638 324.308 264.53 324.308V324.245H265.037L265.925 325.46V324.368C265.907 324.328 265.844 324.308 265.736 324.308V324.245H266.216V324.308C266.108 324.308 266.045 324.328 266.027 324.368V326H265.895L264.821 324.515V325.877C264.839 325.917 264.902 325.937 265.01 325.937V326H264.53ZM266.399 326.003V325.94C266.507 325.94 266.57 325.92 266.588 325.88V324.371C266.57 324.331 266.507 324.311 266.399 324.311V324.248H267.089C267.359 324.248 267.581 324.33 267.755 324.494C267.931 324.656 268.019 324.865 268.019 325.121C268.019 325.379 267.933 325.591 267.761 325.757C267.591 325.921 267.379 326.003 267.125 326.003H266.399ZM266.969 324.335V325.901H267.125C267.261 325.901 267.376 325.837 267.47 325.709C267.566 325.581 267.614 325.386 267.614 325.124C267.614 324.86 267.564 324.663 267.464 324.533C267.364 324.401 267.239 324.335 267.089 324.335H266.969ZM268.641 325.1C268.641 325.236 268.655 325.363 268.683 325.481C268.713 325.599 268.767 325.703 268.845 325.793C268.923 325.883 269.021 325.928 269.139 325.928C269.229 325.928 269.306 325.905 269.37 325.859C269.434 325.811 269.483 325.747 269.517 325.667C269.551 325.587 269.575 325.505 269.589 325.421C269.605 325.335 269.613 325.244 269.613 325.148C269.613 325.014 269.598 324.887 269.568 324.767C269.538 324.647 269.484 324.542 269.406 324.452C269.328 324.362 269.231 324.317 269.115 324.317C269.025 324.317 268.948 324.341 268.884 324.389C268.82 324.437 268.771 324.501 268.737 324.581C268.703 324.661 268.678 324.744 268.662 324.83C268.648 324.914 268.641 325.004 268.641 325.1ZM268.494 325.763C268.322 325.583 268.236 325.37 268.236 325.124C268.236 324.878 268.323 324.665 268.497 324.485C268.671 324.305 268.881 324.215 269.127 324.215C269.373 324.215 269.583 324.305 269.757 324.485C269.931 324.665 270.018 324.878 270.018 325.124C270.018 325.37 269.93 325.583 269.754 325.763C269.58 325.941 269.371 326.03 269.127 326.03C268.879 326.03 268.668 325.941 268.494 325.763ZM270.208 326V325.937C270.316 325.937 270.379 325.917 270.397 325.877V324.368C270.379 324.328 270.316 324.308 270.208 324.308V324.245H270.715L271.603 325.46V324.368C271.585 324.328 271.522 324.308 271.414 324.308V324.245H271.894V324.308C271.786 324.308 271.723 324.328 271.705 324.368V326H271.573L270.499 324.515V325.877C270.517 325.917 270.58 325.937 270.688 325.937V326H270.208Z" fill="#B73C55"/>
<path d="M173.777 301.021C173.91 301.055 174.027 301.088 174.127 301.12C174.027 301.152 173.91 301.186 173.777 301.219C173.103 301.39 172.105 301.549 170.846 301.684C168.335 301.953 164.854 302.12 161 302.12C157.146 302.12 153.665 301.953 151.154 301.684C149.895 301.549 148.897 301.39 148.223 301.219C148.09 301.186 147.973 301.152 147.873 301.12C147.973 301.088 148.09 301.055 148.223 301.021C148.897 300.85 149.895 300.691 151.154 300.557C153.665 300.288 157.146 300.12 161 300.12C164.854 300.12 168.335 300.288 170.846 300.557C172.105 300.691 173.103 300.85 173.777 301.021Z" stroke="#B73C55"/>
<path d="M148 300.62L149.258 322.965C149.258 323.879 154.515 324.62 161 324.62C167.485 324.62 172.742 323.879 172.742 322.965L174 300.62" stroke="#B73C55"/>
<path d="M148 283.12C150 283.453 155.5 287.62 161.5 301.62L161.143 299.12M148 283.12C148 283.12 148.067 284.825 147.5 285.62C146.81 286.586 145 286.12 145 286.12C145 285.62 145.013 284.761 145.5 284.12C146.136 283.283 147.782 283.12 148 283.12ZM148 283.12C148 283.12 146 283.12 145.5 281.12C145.212 279.968 147 278.62 147 278.62C147 278.12 147.745 279.856 148 280.62C148.5 282.12 147 283.12 148 283.12ZM157.5 273.62L161.143 299.12M157.5 273.62C157.5 273.62 155.631 272.969 155.278 272.616C154.278 271.616 155.278 270.116 155.278 270.116C155.278 269.616 157.523 270.852 157.778 271.616C158.278 273.116 157 272.62 157.5 273.62ZM161.143 299.12L173 285.62M157 284.12C157 284.12 157.067 285.825 156.5 286.62C155.81 287.586 154 287.12 154 287.12C154 286.62 154.013 285.761 154.5 285.12C155.136 284.283 156.782 284.12 157 284.12ZM157 284.12C155.812 284.12 155 283.62 155 283.62C155 283.12 156.195 282.12 157 282.12C158.5 282.12 158.5 282.62 159 283.62C159 283.62 157.5 284.12 157 284.12ZM151 285.12C151 285.12 151.067 286.825 150.5 287.62C149.81 288.586 148 288.12 148 288.12C148 287.62 148.013 286.761 148.5 286.12C149.136 285.283 150.782 285.12 151 285.12ZM153 288.12C153 288.12 153.067 289.825 152.5 290.62C151.81 291.586 150 291.12 150 291.12C150 290.62 150.013 289.761 150.5 289.12C151.136 288.283 152.782 288.12 153 288.12ZM155 290.12C155 290.12 155.067 291.825 154.5 292.62C153.81 293.586 152 293.12 152 293.12C152 292.62 152.013 291.761 152.5 291.12C153.136 290.283 154.782 290.12 155 290.12ZM157 293.12C157 293.12 157.067 294.825 156.5 295.62C155.81 296.586 154 296.12 154 296.12C154 295.62 154.013 294.761 154.5 294.12C155.136 293.283 156.782 293.12 157 293.12ZM155 282.12C155 282.12 155.067 283.825 154.5 284.62C153.81 285.586 152 285.12 152 285.12C152 284.62 152.013 283.761 152.5 283.12C153.136 282.283 154.782 282.12 155 282.12ZM152 280.12C152 280.12 152.067 281.825 151.5 282.62C150.81 283.586 149 283.12 149 283.12C149 282.62 149.013 281.761 149.5 281.12C150.136 280.283 151.782 280.12 152 280.12ZM159 287.12C159 287.12 159.067 288.825 158.5 289.62C157.81 290.586 156 290.12 156 290.12C156 289.62 156.013 288.761 156.5 288.12C157.136 287.283 158.782 287.12 159 287.12ZM164 291.12C164 291.12 164.067 292.825 163.5 293.62C162.81 294.586 161 294.12 161 294.12C161 293.62 161.013 292.761 161.5 292.12C162.136 291.283 163.782 291.12 164 291.12ZM164 288.12C164 288.12 164.067 289.825 163.5 290.62C162.81 291.586 161 291.12 161 291.12C161 290.62 161.013 289.761 161.5 289.12C162.136 288.283 163.782 288.12 164 288.12ZM163 285.12C163 285.12 163.067 286.825 162.5 287.62C161.81 288.586 160 288.12 160 288.12C160 287.62 160.013 286.761 160.5 286.12C161.136 285.283 162.782 285.12 163 285.12ZM163 282.12C163 282.12 163.067 283.825 162.5 284.62C161.81 285.586 160 285.12 160 285.12C160 284.62 160.013 283.761 160.5 283.12C161.136 282.283 162.782 282.12 163 282.12ZM162 279.12C162 279.12 162.067 280.825 161.5 281.62C160.81 282.586 159 282.12 159 282.12C159 281.62 159.013 280.761 159.5 280.12C160.136 279.283 161.782 279.12 162 279.12ZM162 276.12C162 276.12 162.067 277.825 161.5 278.62C160.81 279.586 159 279.12 159 279.12C159 278.62 159.013 277.761 159.5 277.12C160.136 276.283 161.782 276.12 162 276.12ZM161 273.12C161 273.12 161.067 274.825 160.5 275.62C159.81 276.586 158 276.12 158 276.12C158 275.62 158.013 274.761 158.5 274.12C159.136 273.283 160.782 273.12 161 273.12ZM157 275.62C157 275.62 155.5 276.12 155 276.12C153.812 276.12 153 275.62 153 275.62C153 275.12 154.195 274.12 155 274.12C156.5 274.12 156.5 274.62 157 275.62ZM158 277.62C158 277.62 156.5 278.12 156 278.12C154.812 278.12 154 277.62 154 277.62C154 277.12 155.195 276.12 156 276.12C157.5 276.12 157.5 276.62 158 277.62ZM158 280.62C158 280.62 156.5 281.12 156 281.12C154.812 281.12 154 280.62 154 280.62C154 280.12 155.195 279.12 156 279.12C157.5 279.12 157.5 279.62 158 280.62ZM167 298.12C167 298.12 165.5 297.895 165 297.62C163.959 297.047 164 296.12 164 296.12C164 295.62 165.063 295.26 165.783 295.62C166.783 296.12 167.5 297.12 167 298.12ZM169 296.12C169 296.12 167.5 295.895 167 295.62C165.959 295.047 166 294.12 166 294.12C166 293.62 167.063 293.26 167.783 293.62C168.783 294.12 169.5 295.12 169 296.12ZM171 294.12C171 294.12 169.5 293.895 169 293.62C167.959 293.047 168 292.12 168 292.12C168 291.62 169.063 291.26 169.783 291.62C170.783 292.12 171.5 293.12 171 294.12ZM173 292.12C173 292.12 171.5 291.895 171 291.62C169.959 291.047 170 290.12 170 290.12C170 289.62 171.063 289.26 171.783 289.62C172.783 290.12 173.5 291.12 173 292.12ZM175 290.12C175 290.12 173.5 289.895 173 289.62C171.959 289.047 172 288.12 172 288.12C172 287.62 173.063 287.26 173.783 287.62C174.783 288.12 175.5 289.12 175 290.12ZM170 288.12C170 288.12 168.5 287.895 168 287.62C166.959 287.047 167 286.12 167 286.12C167 285.62 168.063 285.26 168.783 285.62C169.783 286.12 170.5 287.12 170 288.12ZM168 290.12C168 290.12 166.5 289.895 166 289.62C164.959 289.047 165 288.12 165 288.12C165 287.62 166.063 287.26 166.783 287.62C167.783 288.12 168.5 289.12 168 290.12ZM167 292.12C167 292.12 165.5 291.895 165 291.62C163.959 291.047 164 290.12 164 290.12C164 289.62 165.063 289.26 165.783 289.62C166.783 290.12 167.5 291.12 167 292.12ZM172 287.12C172 287.12 170.5 286.895 170 286.62C168.959 286.047 169 285.12 169 285.12C169 284.62 170.063 284.26 170.783 284.62C171.783 285.12 172.5 286.12 172 287.12ZM176 288.12C176 288.12 174.5 287.895 174 287.62C172.959 287.047 173 286.12 173 286.12C173 285.62 174.063 285.26 174.783 285.62C175.783 286.12 176.5 287.12 176 288.12ZM172.445 286.13C172.445 286.13 172.445 284.62 172.222 283.814C171.906 282.669 173.5 282.12 173.5 282.12C174 282.12 174.506 282.509 174.506 283.314C174.506 285.314 172.945 285.13 172.445 286.13ZM159.5 290.62C159.5 290.62 160.067 291.825 159.5 292.62C158.81 293.586 157.205 292.98 157.205 292.98C157.205 292.48 157.218 291.621 157.705 290.98C158.341 290.143 159.282 290.62 159.5 290.62Z" stroke="#B73C55"/>
<path d="M871.506 382.079C872.226 386.577 870.695 390.003 867.768 392.525C864.815 395.069 860.418 396.707 855.421 397.507C850.428 398.306 845.835 398.056 842.33 396.498C838.855 394.954 836.412 392.111 835.691 387.602C834.963 383.053 836.09 377.863 838.644 373.612C841.196 369.363 845.139 366.105 850.002 365.327C854.867 364.548 859.873 366.429 863.867 369.69C867.863 372.953 870.781 377.545 871.506 382.079Z" stroke="#B73C55"/>
<path d="M827.003 390.444C826.824 392.028 826.3 393.26 825.526 394.215C824.751 395.172 823.704 395.876 822.441 396.368C819.901 397.356 816.541 397.464 812.975 397.061C809.415 396.658 807.016 395.777 805.586 394.276C804.175 392.795 803.613 390.609 803.981 387.35C804.712 380.884 810.098 375.224 816.944 375.997C823.77 376.769 827.736 383.956 827.003 390.444Z" stroke="#B73C55"/>
<path d="M791.681 409.348C791.534 410.646 791.099 411.651 790.458 412.428C789.815 413.207 788.943 413.783 787.885 414.185C785.754 414.995 782.924 415.079 779.91 414.738C776.9 414.398 774.89 413.664 773.695 412.435C772.523 411.228 772.044 409.444 772.348 406.754C772.95 401.433 777.46 396.782 783.209 397.432C788.939 398.079 792.285 404.004 791.681 409.348Z" stroke="#B73C55"/>
<path d="M749.601 405.612C749.437 407.061 748.5 408.317 747.043 409.164C745.585 410.012 743.633 410.43 741.536 410.193C739.411 409.953 737.978 409.298 737.12 408.383C736.273 407.48 735.921 406.256 736.095 404.724C736.422 401.827 739.378 399.858 743.619 400.338C745.757 400.579 747.34 401.192 748.337 402.081C749.312 402.951 749.769 404.119 749.601 405.612Z" stroke="#B73C55"/>
<path d="M756 401.5C756.445 397.562 753.474 391.743 747.172 391.03C738.5 390.051 735.445 396.062 735 400" stroke="#B73C55"/>
<path d="M772.63 444.018C772.494 445.221 772.071 446.15 771.442 446.867C770.809 447.588 769.944 448.121 768.887 448.491C766.759 449.237 763.926 449.295 760.91 448.955C757.896 448.614 755.876 447.91 754.672 446.748C753.498 445.614 753.012 443.953 753.294 441.45C753.852 436.513 758.298 432.168 764.077 432.821C769.835 433.472 773.19 439.058 772.63 444.018Z" stroke="#B73C55"/>
<path d="M804.164 443.267C803.55 444.201 802.799 444.779 801.951 445.09C801.097 445.404 800.111 445.457 799.019 445.285C796.823 444.939 794.29 443.695 791.762 442.034C789.236 440.373 787.739 438.859 787.158 437.335C786.594 435.858 786.854 434.26 788.138 432.307C790.663 428.466 796.388 426.826 801.249 430.021C806.093 433.205 806.702 439.407 804.164 443.267Z" stroke="#B73C55"/>
<path d="M778.862 385.285C779.778 385.105 780.722 385.011 781.685 385.01C789.654 385.003 793.992 394.889 794 404C794.008 413.111 787.942 415.392 779.973 415.399C775.113 415.403 771.358 413.249 769.166 409.5" stroke="#B73C55"/>
<path d="M773.553 388.277L773.548 388.287L773.543 388.297C773.226 389.008 772.766 389.747 772.235 390.548C772.098 390.755 771.956 390.967 771.811 391.182C771.403 391.79 770.973 392.431 770.568 393.097C769.466 394.911 768.498 397.003 768.5 399.501C768.502 401.479 768.75 403.298 768.962 404.853C768.983 405.007 769.004 405.158 769.024 405.307C769.136 406.138 769.227 406.878 769.258 407.53C769.289 408.185 769.256 408.717 769.137 409.142C768.831 410.24 768.468 410.969 768.09 411.415C767.724 411.847 767.359 412 767 412C763.124 412.004 760.467 410.82 758.759 408.612C757.029 406.377 756.201 403.006 756.197 398.494C756.19 389.747 764.2 384.026 771.963 384C773.529 384.238 774.796 384.418 775.822 384.564C776.793 384.702 777.549 384.81 778.138 384.905C778.634 384.986 778.984 385.055 779.227 385.12C779.197 385.134 779.165 385.15 779.13 385.165C778.806 385.311 778.386 385.462 777.902 385.636C777.717 385.702 777.522 385.772 777.32 385.847C776.61 386.108 775.829 386.415 775.158 386.792C774.499 387.163 773.871 387.64 773.553 388.277Z" stroke="#B73C55"/>
<path d="M778.552 402.927C778.594 402.538 778.743 402.251 778.971 402.027C779.207 401.796 779.551 401.61 780.007 401.479C780.927 401.213 782.187 401.2 783.564 401.345C784.941 401.491 785.813 401.769 786.316 402.177C786.771 402.545 786.988 403.074 786.894 403.958C786.716 405.642 784.92 407.248 782.352 406.976C779.807 406.707 778.372 404.632 778.552 402.927Z" fill="#B73C55" stroke="#B73C55"/>
<path d="M740.478 403.188C740.497 403.015 740.56 402.889 740.652 402.793C740.748 402.693 740.887 402.612 741.074 402.553C741.453 402.434 741.975 402.423 742.552 402.484C743.129 402.545 743.483 402.666 743.682 402.838C743.861 402.992 743.953 403.221 743.911 403.618C743.831 404.373 743.078 405.076 742.03 404.966C740.994 404.856 740.397 403.954 740.478 403.188Z" stroke="#B73C55" stroke-width="0.5"/>
<path d="M742 405C742 405 741.5 407 742 408M742 408C742 408 737.5 408 738.5 404.5M742 408C742 408 747 408 746.5 406" stroke="#B73C55" stroke-width="0.5"/>
<path d="M806.5 395.048C805.228 396.445 804.133 398.13 803.255 400M823 396C826.016 400.089 828.244 405.936 827.845 411.742C827.254 420.332 821.412 423.14 814.5 423.295" stroke="#B73C55"/>
<path d="M842.737 442C840.755 443.236 838.328 444.229 835.679 444.976C827.848 447.183 820.817 446.308 819.016 439.917C817.214 433.525 821.25 424.553 829.081 422.346C836.913 420.139 845.796 425.62 847.597 432.012C847.74 432.521 847.835 433.017 847.884 433.5" stroke="#B73C55"/>
<path d="M871.512 447.461C870.802 450.515 868.725 452.273 865.797 453.058C862.839 453.85 859.032 453.637 855 452.7C850.971 451.763 847.552 450.261 845.337 448.234C843.146 446.228 842.132 443.716 842.845 440.649C843.57 437.531 845.867 434.511 848.998 432.499C852.123 430.492 856.034 429.518 859.952 430.429C863.872 431.34 867.134 434.019 869.234 437.287C871.338 440.562 872.233 444.359 871.512 447.461Z" stroke="#B73C55"/>
<path d="M855.999 396.5L855.889 396.5L855.788 396.547C852.155 398.243 849.462 397.914 847.574 396.582C845.653 395.227 844.447 392.75 843.994 389.921C843.551 387.155 844.265 384.687 845.849 382.782C847.437 380.872 849.927 379.498 853.078 378.994C856.243 378.488 859.143 378.906 861.347 380.12C863.539 381.328 865.067 383.333 865.506 386.079C865.95 388.849 865.232 391.448 863.594 393.352C861.959 395.253 859.371 396.5 855.999 396.5Z" stroke="#B73C55"/>
<path d="M858.007 384.085C858.087 384.545 857.88 385.144 857.267 385.719C856.66 386.287 855.696 386.786 854.415 387.008C851.828 387.455 850.66 386.384 850.493 385.415C850.408 384.926 850.643 384.059 851.288 383.221C851.915 382.406 852.87 381.703 854.085 381.493C855.289 381.285 856.208 381.645 856.859 382.195C857.527 382.76 857.91 383.523 858.007 384.085Z" stroke="#B73C55"/>
<path d="M849.069 379.107C849.067 379.117 849.057 379.168 848.971 379.248C848.86 379.352 848.658 379.465 848.356 379.517C848.051 379.57 847.869 379.525 847.778 379.478C847.692 379.434 847.676 379.386 847.672 379.364C847.672 379.364 847.672 379.364 847.672 379.364C847.673 379.354 847.683 379.215 847.825 379.03C847.957 378.859 848.15 378.721 848.386 378.68C848.611 378.641 848.763 378.707 848.87 378.798C848.99 378.899 849.053 379.033 849.069 379.107Z" stroke="#B73C55"/>
<path d="M857.069 377.107C857.067 377.117 857.057 377.168 856.971 377.248C856.86 377.352 856.658 377.465 856.356 377.517C856.051 377.57 855.869 377.525 855.778 377.478C855.692 377.434 855.676 377.386 855.672 377.364C855.672 377.364 855.672 377.364 855.672 377.364C855.673 377.354 855.683 377.215 855.825 377.03C855.957 376.859 856.15 376.721 856.386 376.68C856.611 376.641 856.763 376.707 856.87 376.798C856.99 376.899 857.053 377.033 857.069 377.107Z" stroke="#B73C55"/>
<path d="M862.5 390.5C862.5 390.5 861.5 393 859.5 394C857.5 395 854.5 393.5 854.5 393.5C854.5 393.5 852.051 395.736 850.5 396C848.49 396.343 846.5 393.5 846.5 393.5" stroke="#B73C55"/>
<path d="M854.5 393.5L854 387.5" stroke="#B73C55"/>
<path d="M840.5 371C840.5 371 832 365 828 376.5C827.547 377.803 827.299 378.965 827.216 380M836 388.5C836 388.5 833.946 388.415 831.821 387.5M861.5 368C861.5 368 862.371 365.968 863.5 365C867 362 872.76 365.874 875 371C876.486 374.4 876.762 377.236 875 380.5C873.752 382.812 872 382.5 872 382.5" stroke="#B73C55"/>
<path d="M809 378C809 378 805 376.5 802.5 379.55C800 382.601 803.817 387.55 803.817 387.55M824.5 380.5C824.5 380.5 827.076 379.573 828.5 380C830 380.45 831.5 383 832 385C832.265 386.059 832 388 831 389C829.142 390.858 827 391 827 391" stroke="#B73C55"/>
<path d="M855.5 398L871 406L872 399.5C872 399.5 867.164 398.301 864 398C860.695 397.686 855.5 398 855.5 398ZM855.5 398L845 405.5L839 401C839 401 840.5 400 843 399.5C847.787 398.543 855.5 398 855.5 398Z" stroke="#B73C55"/>
<path d="M868 392.5C868 392.5 874.679 395.399 877.5 399.5C881.822 405.783 884.924 412.958 882 420C880.094 424.591 877.929 428.356 873 429C868.754 429.556 865.062 428.254 863 424.5C860.381 419.733 867.934 416.939 868 411.5C868.031 408.932 867 405 867 405" stroke="#B73C55"/>
<path d="M839 394.5L833.5 397.5" stroke="#B73C55"/>
<path d="M810.319 382.675C809.693 383.738 808.643 384.021 808.044 383.668C807.445 383.316 807.183 382.26 807.81 381.196C808.436 380.133 809.487 379.85 810.085 380.203C810.684 380.555 810.946 381.611 810.319 382.675Z" stroke="#B73C55"/>
<path d="M822.507 383.927C821.975 384.932 820.636 385.33 819.486 384.72C818.337 384.111 817.915 382.78 818.448 381.774C818.981 380.769 820.319 380.372 821.469 380.981C822.618 381.591 823.04 382.922 822.507 383.927Z" stroke="#B73C55"/>
<path d="M814.146 384.354L814.146 384.354C814.395 384.603 814.48 384.793 814.484 385.012C814.489 385.269 814.386 385.647 814.058 386.266C813.8 386.752 813.632 387.271 813.505 387.665C813.456 387.815 813.413 387.947 813.374 388.053C813.291 388.271 813.225 388.383 813.17 388.44C813.152 388.458 813.134 388.474 813.107 388.484C812.587 388.156 812.042 387.497 811.686 386.744C811.497 386.344 811.373 385.942 811.331 385.583C811.289 385.22 811.335 384.936 811.441 384.734C811.654 384.334 812.17 384.109 812.835 384.084C813.152 384.071 813.462 384.108 813.714 384.172C813.986 384.242 814.118 384.325 814.146 384.354Z" stroke="#B73C55"/>
<path d="M809.5 381L808.5 383M810 382H808M821.5 383.5L819.5 382M820 384L821 382" stroke="#B73C55" stroke-width="0.5"/>
<path d="M813 388.5V394.5M813 394.5C813 394.5 814.268 394.335 815 394C815.64 393.708 816.5 393 816.5 393M813 394.5C813 394.5 811.5 394 810.5 393.5C809.5 393 808.5 392 808.5 392" stroke="#B73C55"/>
<path d="M824 398C824 398 827.587 396.388 830 396.5C832.036 396.595 835.452 398.674 837 400C838.677 401.438 839.896 402.531 840.819 403.5M827.5 407C827.5 407 831.688 411.188 834.704 413.685M840.819 403.5C841.823 404.553 842.479 405.459 843 406.5C844.139 408.777 844.011 410.951 842.5 413C841.204 414.757 839.683 415.5 837.5 415.5C837.053 415.5 835.984 414.745 834.704 413.685M840.819 403.5C840.819 403.5 837.749 406.242 836.5 408.5C835.463 410.375 834.704 413.685 834.704 413.685" stroke="#B73C55"/>
<path d="M758 407.5C755.968 409.075 754.837 410.849 754.026 413.069C753.147 415.474 752.537 417.261 752.156 418.73M762.574 426.068C760 428 758.342 428.187 755.987 427.708C753.24 427.149 751.838 425.472 751.674 422.779C751.599 421.547 751.743 420.326 752.156 418.73M762.574 426.068C763.025 425.729 764.307 424.584 765 422.779M762.574 426.068C762.574 426.068 758.5 430.5 758 434M771.5 414C771.5 414 766.632 418.526 765 422.779M752.156 418.73C752.156 418.73 756.907 418.706 759.508 419.628C761.667 420.393 765 422.779 765 422.779M798 421C798 421 806.457 427.048 807 433.001C807.37 437.061 804.5 443 804.5 443" stroke="#B73C55"/>
<path d="M793.5 407.5C793.5 407.5 794.979 407.302 796.268 407.161M793.5 414.5C793.5 414.5 797 420 803.5 426M812 418.5C811.076 417.531 810.677 414.438 809 413C808.096 412.225 806.711 410.99 805.119 409.798M812 418.5C813.004 419.553 813.479 420.459 814 421.5C814.521 422.542 815.011 424.451 813.5 426.5C812.204 428.257 809.683 428 807.5 428C807.053 428 804.78 427.06 803.5 426M812 418.5C812 418.5 807.617 418.775 805.704 420.506C803.5 422.5 803.5 426 803.5 426" stroke="#B73C55"/>
<path d="M816 423.5C813.196 426.05 811.172 429.768 810.59 433M827.571 414C829.191 415.748 830.381 418.509 830.818 421.745M818.993 439C816.932 439.898 814.981 440.173 813.501 439.5C810.804 438.765 810.5 436.5 810.59 433M810.59 433C810.59 433 809 436.5 806.5 437" stroke="#B73C55"/>
<ellipse cx="777.672" cy="395.803" rx="1" ry="1.5" transform="rotate(34.3443 777.672 395.803)" fill="#B73C55"/>
<ellipse cx="787.64" cy="396.802" rx="1" ry="1.5" transform="rotate(-31.7948 787.64 396.802)" fill="#B73C55"/>
<path d="M794 403.5C798.265 410.849 801.54 412.928 804.005 411.497C806.469 410.067 805.296 402.769 801.031 395.42C796.766 388.07 789.505 383.176 785.505 385.497" stroke="#B73C55"/>
<path d="M771 447.5C771 447.5 773.038 447.637 774.5 446.5C776.937 444.605 776.12 440.967 778.5 439C780.508 437.341 783 437.27 784.5 437.5C787.552 437.968 791 441.5 791 441.5" stroke="#B73C55"/>
<circle cx="748.5" cy="399.5" r="1.5" fill="#B73C55"/>
<ellipse cx="737.508" cy="398.772" rx="1" ry="1.5" transform="rotate(23.0906 737.508 398.772)" fill="#B73C55"/>
<path d="M748.5 402C748.5 402 751 399.901 754 400.5C757 401.1 756.429 405 756 406.5C755.286 409 751.921 412.132 751 412.5C748.5 413.5 743.5 413.328 741 412.5C738.011 411.511 735.677 409.785 734.5 409C733 408 731.84 405 732.5 403C733.16 401 734.029 400.486 735 400C736 399.501 739 401 739 401" stroke="#B73C55"/>
<path d="M744.912 390.753C744.835 387.934 746.326 384.03 748.749 381.38C752.475 377.304 755.079 374.742 757.001 376.5C758.923 378.257 762.228 381.924 758.501 386C756.131 387.481 753.586 390.366 751.177 392.264" stroke="#B73C55"/>
<path d="M745 390.5C745 390.5 744.208 388.07 742.5 387.501C738 386 731.595 377.22 729 382C727.283 385.165 728.876 388.535 731.5 391C733.709 393.076 738.5 393 738.5 393" stroke="#B73C55"/>
<path d="M733.5 417C733.5 417 737.292 418.293 738 415.5C738.413 413.872 737.548 411.152 736 410.5C734.121 409.709 730.928 410.685 730 412.5C729.18 414.103 729.727 416.727 731 418C733 420 735.865 418.017 737 420C737.873 421.525 737.415 422.793 737 424.5C736.752 425.522 736.468 426.059 736 427C734.156 430.709 728.674 430.362 728.5 434.5C728.383 437.293 729.168 439.458 731.5 441C733.943 442.615 736.229 441.95 739 441C741.512 440.139 744.5 437 744.5 437L754 436L755 437" stroke="#B73C55"/>
<path d="M754 410H755.5M750 413C750 413 750.063 414.627 750.5 415.5C750.937 416.374 752.5 417 752.5 417" stroke="#B73C55"/>
<path d="M744.5 413.5C744.5 413.5 744.715 416.672 743.5 418C742.026 419.611 739.946 419.989 738 419C735.035 417.495 744.5 413.5 744.5 413.5ZM744.5 413.5C747.234 415.258 750 415.5 751.5 418C753 420.5 750.83 422.207 749 422C747.159 421.793 748.353 419.145 747.5 417.5C746.601 415.767 744.5 413.5 744.5 413.5Z" stroke="#B73C55"/>
<path d="M872.5 429C872.5 429 874.735 433.788 874.5 437C874.097 442.489 871.5 444.5 871.5 444.5" stroke="#B73C55"/>
</svg>
