<svg width="263" height="505" viewBox="0 0 263 505" fill="none" xmlns="http://www.w3.org/2000/svg">
<path d="M130.986 93.4687C119.579 100.979 114.393 101.715 100.469 107.752C90.603 105.441 85.5113 109.948 84.1642 115.829C82.4983 114.835 84.1642 120.302 84.5 125.273C95.5 140.68 103.255 130.559 104 133.225C109 151.118 71.5 178.951 58 199.825C31 194.855 39.9983 157.082 51.4983 128.752C60.3731 106.889 58.4983 58.6722 78.1003 64.4595C100.469 26.7623 127.282 41.7822 127.282 41.7822C127.282 41.7822 138.135 28.5818 157.058 34.2722C174.686 39.5734 184.464 52.9736 184.464 52.9736C184.464 52.9736 189.375 49.7845 193.648 50.7647C205.019 53.3732 192.838 73.9553 181.797 77.7124C165.353 83.308 152.317 67.2573 152.317 67.2573C149.058 75.6508 142.392 85.9586 130.986 93.4687Z" fill="#8FA3C4"/>
<path d="M85.4167 126.841C89 132.728 92 133.224 102 132.727C103.5 134.715 104.794 133.37 104.5 136.206C103.26 148.157 93.4999 160.561 81.4999 172.489C60.9028 192.963 63.9999 193.364 61.5 193.364C59.0001 193.364 66.9999 178.95 78.9999 163.045C90.9999 147.141 81.1185 135.159 85.4167 126.841Z" fill="#7B8CAA"/>
<path d="M55.9987 119.308C48.5026 136.207 44.1751 136.613 42.8418 153.106C34 177.957 51.8419 205.79 55.9986 198.334C60.1553 190.879 41.9958 180.442 46.5 166.028C51.0042 151.615 57.0002 131.237 61.5002 119.308C66.0002 107.38 65.063 60.6305 75.5808 69.4658L77.951 64.3119C58.4725 55.1292 63.4947 102.41 55.9987 119.308Z" fill="#BDD6FF"/>
<path d="M157.502 34.7135C139.875 28.3817 126.392 41.3399 126.392 41.3399C126.392 41.3399 126.541 44.5794 134.984 39.72C143.428 34.8606 149.65 35.8915 155.131 36.9222C160.612 37.953 175.13 41.0453 157.502 34.7135Z" fill="#BDD6FF"/>
<path d="M80.322 60.9247C69.8047 79.1839 74.6917 125.717 77.5068 85.6637C80.322 45.6105 110.986 41.9291 123.43 42.6654C135.873 43.4017 126.985 39.4258 116.319 39.4258C105.653 39.4257 90.8393 42.6655 80.322 60.9247Z" fill="#BDD6FF"/>
<path d="M57.0001 199.825C27.5 188.891 44.1007 141.674 52.4954 127.261C60.8901 112.847 58.8422 55.1818 78.3207 64.3645" stroke="#2E2F26" stroke-width="2"/>
<path d="M127.875 41.0456C127.875 41.0456 137.355 28.0872 157.502 34.7138C177.649 41.3403 184.315 52.8259 184.315 52.8259" stroke="#2E2F26" stroke-width="2"/>
<path d="M84.1734 116.292C75.5817 110.402 66.6935 86.8413 80.3221 60.9245C93.9508 35.0076 121.653 37.5111 126.393 41.1645" stroke="#2E2F26" stroke-width="2"/>
<path d="M100.469 107.752C100.469 107.752 119.579 100.978 130.985 93.4682C142.392 85.9582 149.058 75.6503 152.317 67.2568" stroke="#2E2F26" stroke-width="2"/>
<path d="M59.495 199.825C70 174.974 98.5 169.01 104.5 136.207" stroke="#2E2F26" stroke-width="2"/>
<path d="M168.464 50.6171C172.909 54.8876 176.464 53.8567 180.908 53.8567C186.493 53.8567 189.838 48.1343 194.833 50.6171C203.721 55.0349 194.818 70.2026 185.945 75.6504C175.871 81.835 158.243 76.8284 150.688 64.0173" stroke="#2E2F26" stroke-width="2" stroke-linejoin="round"/>
<path d="M180.612 54.1511C178.685 55.2722 174.982 54.7403 169.945 52.6787C165.353 49.7336 171.575 61.9556 183.87 56.9489C198.646 50.9324 198.028 59.1702 198.24 57.538C199.573 47.2301 186.685 50.617 180.612 54.1511Z" fill="#BDD6FF"/>
<path d="M102.289 108.685C72.8099 99.6472 82.7354 143.879 104.067 131.362" stroke="#2E2F26" stroke-width="2"/>
<path d="M102.542 132.49C104.738 135.162 106.967 137.561 109.218 139.706" stroke="#2E2F26" stroke-width="2" stroke-linejoin="round"/>
<path d="M150.824 170.327C143.235 172.419 134.381 169.002 140.011 165.32C140.011 165.32 139.121 158.988 139.121 154.129C126.085 151.331 112.309 146.619 102.679 132.188C100.161 132.924 88.4583 136.753 84.7549 122.617C79.8494 103.892 100.458 107.744 100.458 107.744C100.458 107.744 121.937 99.6447 133.788 91.2513C145.64 82.8578 152.75 67.1016 152.75 67.1016C152.75 67.1016 160.009 74.6451 165.194 76.3786C170.379 78.1121 177.934 78.2929 177.934 78.2929C177.934 78.2929 182.378 83.7413 183.267 94.7854C185.933 91.1041 190.706 89.653 192.007 92.1348C195.118 98.0725 193.044 106.124 187.859 112.014C189.933 120.261 188.847 125.492 184.748 133.072C178.847 143.983 157.787 152.067 157.787 152.067L158.972 160.903C164.897 162.964 156.998 168.625 150.824 170.327Z" fill="#FAE2CA"/>
<path d="M158.231 152.067C152.306 153.54 145.788 155.749 138.973 154.129C138.973 157.221 138.779 156.044 139.714 158.105C146.38 162.522 155.417 161.786 158.528 155.601C158.528 153.245 158.927 153.965 158.231 152.067Z" fill="#EDC196"/>
<path d="M100.607 107.449C100.607 107.449 119.716 100.676 131.123 93.1655C142.53 85.6554 149.196 75.3476 152.455 66.9541C152.455 66.9541 165.786 80.207 178.082 78.5872C184.007 86.9807 181.749 92.8645 183.267 102.737C183.35 103.281 183.471 103.823 183.621 104.366C184.122 105.5 184.556 106.671 184.911 107.876C188.898 117.057 196.286 127.147 170.231 145.735C185.303 130.752 187.911 118.058 184.911 107.876C184.399 106.696 183.942 105.532 183.621 104.366C176.208 87.5816 154.083 78.5872 154.083 78.5872C149.047 88.895 117.197 109.953 108.013 108.774C98.828 107.596 100.607 107.449 100.607 107.449Z" fill="#EDC196"/>
<path d="M183.119 95.5214C193.784 81.0906 198.08 103.179 187.711 112.161" stroke="#2E2F26" stroke-width="2"/>
<path d="M102.531 108.479C73.0518 99.4417 82.9772 143.673 104.309 131.157" stroke="#2E2F26" stroke-width="2"/>
<path d="M177.786 78.1455C183.118 83.1522 183.118 96.1106 183.118 102.148" stroke="#2E2F26" stroke-width="2" stroke-linejoin="round"/>
<path d="M183.267 103.915C196.599 122.321 184.6 138.814 168.008 147.207C150.217 158.095 124.624 158.947 102.383 131.893" stroke="#2E2F26" stroke-width="2" stroke-linejoin="round"/>
<path d="M138.973 154.129L140.307 166.793M158.972 163.7L158.231 151.92" stroke="#2E2F26" stroke-width="2"/>
<path d="M157.491 120.113C163.268 117.168 161.787 110.818 160.454 109.658C159.12 108.498 155.107 111.278 153.491 113.192" stroke="#2E2F26" stroke-width="2"/>
<path d="M133.344 80.3544C121.789 74.6115 118.382 81.5324 113.642 89.1895" stroke="#2E2F26" stroke-width="2"/>
<path d="M172.897 74.0223C163.268 67.3959 158.38 70.4882 153.639 78.1454" stroke="#2E2F26" stroke-width="2"/>
<path d="M171.474 81.3849C181.045 84.0355 181.193 106.713 170.527 108.627C159.861 110.541 158.675 99.0554 158.231 93.3125C157.787 87.5696 161.904 78.7343 171.474 81.3849Z" fill="white"/>
<path d="M158.231 93.3125C157.787 87.5696 161.904 78.7343 171.474 81.3849C177.97 83.184 180.125 94.2093 177.504 101.706" stroke="#2E2F26" stroke-width="2"/>
<path d="M164.75 89.7785C159.189 91.6191 159.417 105.829 166.675 106.124C173.934 106.418 173.045 99.3501 172.601 96.1105C172.156 92.8709 170.31 87.938 164.75 89.7785Z" fill="#681F2E"/>
<path d="M164.782 92.0876C160.453 94.1965 161.151 103.986 166.991 104.205C172.831 104.423 171.905 97.4975 171.163 95.6774C170.42 93.8574 169.111 89.9786 164.782 92.0876Z" fill="#2E2F26"/>
<path d="M164.321 93.5075C162.473 94.8143 163.67 100.66 165.986 100.041C168.302 99.4221 167.964 95.8115 167.6 94.8143C167.235 93.8171 166.168 92.2008 164.321 93.5075Z" fill="white"/>
<path d="M163.5 129.745C159 137.201 139 139.189 136.5 127.757" stroke="#2E2F26" stroke-width="2"/>
<path d="M168.453 50.35C172.897 54.6205 176.452 53.5896 180.896 53.5896C186.481 53.5897 189.826 47.8672 194.821 50.35C203.71 54.7678 194.806 69.9355 185.933 75.3833C175.86 81.568 158.231 76.5613 150.676 63.7502" stroke="#2E2F26" stroke-width="2" stroke-linejoin="round"/>
<path d="M100.606 107.449C100.606 107.449 119.716 100.676 131.123 93.1655C142.529 85.6554 149.196 75.3476 152.455 66.9541" stroke="#2E2F26" stroke-width="2"/>
<path d="M124.752 89.4841C114.234 95.0799 121.048 120.113 134.233 117.463C147.417 114.812 145.491 99.3504 143.417 95.08C141.344 90.8096 135.27 83.8883 124.752 89.4841Z" fill="white"/>
<path d="M143.417 95.08C141.344 90.8096 135.27 83.8883 124.752 89.4841C118.977 92.5564 118.427 101.488 121.288 108.48C122.685 111.897 124.898 114.851 127.713 116.432" stroke="#2E2F26" stroke-width="2"/>
<path d="M128.03 96.9729C122.241 100.457 125.992 116.046 133.249 114.396C140.506 112.745 139.446 103.117 138.304 100.458C137.163 97.7983 133.82 93.4883 128.03 96.9729Z" fill="#681F2E"/>
<path d="M129.496 99.5107C125.554 101.906 128.108 112.624 133.049 111.489C137.99 110.354 137.269 103.735 136.491 101.906C135.714 100.078 133.438 97.1151 129.496 99.5107Z" fill="#2E2F26" stroke="#2E2F26" stroke-width="2"/>
<path d="M129.36 100.322C127.512 101.738 128.709 108.071 131.025 107.4C133.342 106.73 133.003 102.818 132.639 101.738C132.275 100.658 131.208 98.9066 129.36 100.322Z" fill="white"/>
<path d="M143.417 95.08C141.344 90.8096 135.27 83.8883 124.752 89.4841C118.977 92.5564 118.427 101.488 121.288 108.48C122.685 111.897 124.898 114.851 127.713 116.432" stroke="#2E2F26" stroke-width="2"/>
<path d="M132.323 336.88L136.027 413.599C136.027 413.599 144.288 412.117 147.285 415.366C149.609 417.886 149.211 423.613 149.211 423.613L152.174 422.582L156.766 336.88C156.766 336.88 149.285 338.062 144.47 338.058C139.714 338.054 132.323 336.88 132.323 336.88Z" fill="#FAE2CA"/>
<path d="M171.283 417.722L167.728 333.935C167.728 333.935 173.988 334.818 178.024 334.818C182.059 334.818 188.319 334.229 188.319 334.229L186.394 409.623C186.394 409.623 180.441 409.385 178.246 411.832C176.169 414.147 176.765 419.637 176.765 419.637L171.283 417.722Z" fill="#FAE2CA"/>
<path d="M157.358 336.585H132.916C132.916 336.585 130.377 343.131 132.916 345.568C137.212 349.691 151.729 349.249 155.285 345.568C157.74 343.025 157.358 336.585 157.358 336.585Z" fill="#EDC196"/>
<path d="M168.173 342.77C166.865 339.636 168.173 333.64 168.173 333.64L188.023 333.935C188.023 333.935 189.382 340.218 188.023 343.653C186.509 347.482 170.322 347.924 168.173 342.77Z" fill="#EDC196"/>
<path d="M136.027 413.599L132.323 336.88M156.766 336.88L152.174 422.582M167.728 333.64L171.283 417.723M186.394 409.624L188.319 333.64" stroke="#2E2F26" stroke-width="2"/>
<path d="M83.8024 312.551L98.7046 233.43C98.7046 233.43 103.107 239.381 106.938 242.258C109.618 244.27 114.364 246.744 114.364 246.744C114.364 246.744 100.452 287.191 99.7922 296.598C99.3094 303.481 102.343 309.404 100.811 316.031C100.042 319.356 100.457 317.339 99.845 319.606C99.4251 321.16 97.4318 327.005 95.1064 325.554C92.781 324.103 97.4057 312.397 95.698 311.756C93.9903 311.115 92.2634 317.508 90.6362 323.532C89.2006 328.848 96.6525 337.629 92.6775 340.738C90.8785 342.145 86.073 332.941 85.3188 327.743C84.7486 333.878 92.2501 339.946 87.1422 343.432C85.6049 344.482 81.9027 334.493 81.2459 328.118C81.0825 326.532 81.1664 324.751 81.3925 322.95C79.7819 329.396 83.5941 333.741 80.8192 338.211C79.7093 339.998 78.6386 334.465 78.1259 327.289C77.8376 323.255 83.8024 312.551 83.8024 312.551Z" fill="#FAE2CA"/>
<path d="M114.548 247.346C109.295 243.436 101.914 238.064 98.9701 234.947L96.6142 243.661C98.3281 249.325 103.82 256.351 111.578 254.999C112.348 252.15 112.892 250.139 114.548 247.346Z" fill="#EDC196"/>
<path d="M98.7046 233.43L83.8024 312.551C83.8024 312.551 77.8376 323.255 78.1259 327.289C78.6386 334.465 79.7093 339.998 80.8192 338.211C83.5941 333.741 79.7819 329.396 81.3925 322.95C82.7562 317.492 84.4999 310.654 84.4999 310.654C84.4999 310.654 80.5354 321.222 81.2459 328.118C81.9027 334.493 85.6049 344.482 87.1422 343.432C92.2501 339.946 84.7486 333.878 85.3188 327.743M85.3188 327.743C85.9003 321.485 87.6882 318.97 87.6882 318.97C87.6882 318.97 84.4928 322.051 85.3188 327.743ZM85.3188 327.743C86.073 332.941 90.8785 342.145 92.6775 340.738C96.6525 337.629 89.2006 328.848 90.6362 323.532C92.2634 317.508 93.9903 311.115 95.698 311.756C97.4057 312.397 92.781 324.103 95.1064 325.554C97.4318 327.005 99.4251 321.16 99.845 319.606C100.457 317.339 100.042 319.356 100.811 316.031C102.343 309.404 99.3094 303.481 99.7922 296.598C100.452 287.191 114.364 246.744 114.364 246.744" stroke="#2E2F26" stroke-width="2"/>
<path d="M115.372 332.787C112.705 328.664 118.779 276.83 118.779 276.83C118.779 276.83 137.906 280.768 150.184 279.776C156.801 279.241 159.745 277.664 166.331 276.83C178.277 275.319 197.736 275.652 197.736 275.652C197.736 275.652 205.439 319.829 203.217 329.4C201.85 335.29 169.725 334.835 163.876 332.479C160.077 341.859 117.392 335.911 115.372 332.787Z" fill="#C1919B"/>
<path d="M116.769 298.299C118.25 291.083 118.095 280.017 118.842 276.8C148.322 280.923 197.059 275.327 197.059 275.327C197.059 275.327 202.541 311.846 202.541 315.086C197.059 289.758 171.135 304.925 116.769 298.299Z" fill="#A27881"/>
<path d="M118.842 276.799C118.842 276.799 112.768 328.633 115.435 332.756C117.515 335.971 162.691 342.18 164.173 331.578C165.175 324.406 165.062 286.076 165.062 286.076M164.101 332.756C169.95 335.112 201.914 335.259 203.281 329.369C205.503 319.797 197.8 275.621 197.8 275.621" stroke="#2E2F26" stroke-width="2"/>
<path d="M120.176 246.761C110.251 246.761 95.7329 243.668 88.7706 233.802C90.3999 226.145 103.881 181.379 109.806 176.078C115.732 170.777 139.434 161.206 139.434 161.206L140.026 165.623C140.026 165.623 133.064 169.746 145.507 171.072C151.01 171.658 156.934 168.766 158.84 166.507C163.284 161.942 158.84 161.206 158.84 161.206V158.997C158.84 158.997 181.505 157.966 183.431 158.997C185.356 160.028 209.651 176.52 209.651 176.52L205.8 197.725L213.651 201.553C213.651 201.553 213.651 220.696 209.355 223.2C205.059 225.703 195.726 213.481 195.726 213.481C195.726 213.481 198.028 232.093 198.541 245.141C198.886 253.933 202.757 269.438 201.207 273.708C199.658 277.979 171.135 275.622 163.432 277.831C149.032 281.96 116.472 277.831 115.583 275.622C114.694 273.414 118.207 252.321 120.176 246.761Z" fill="black"/>
<path d="M139.879 165.623C134.249 169.305 143.103 172.722 150.692 170.63C156.866 168.928 164.765 163.267 158.84 161.206" stroke="#2E2F26" stroke-width="2"/>
<path d="M139.286 160.911C133.656 164.592 114.991 171.55 109.658 176.078C105.149 179.907 87.7336 232.035 88.6224 233.949C89.5113 235.864 101.659 248.086 119.731 246.761" stroke="#2E2F26" stroke-width="2"/>
<path d="M120.176 203.468C118.694 218.488 122.99 238.809 120.176 246.761C118.207 252.321 114.694 273.414 115.583 275.623C116.472 277.831 149.032 281.96 163.432 277.831C171.135 275.623 199.658 277.979 201.207 273.708C202.757 269.438 198.886 253.933 198.541 245.141C198.028 232.093 195.726 213.481 195.726 213.481" stroke="#2E2F26" stroke-width="2"/>
<path d="M158.692 158.997C169.357 158.997 177.802 157.671 182.839 158.997C188.572 160.505 193.801 168.126 209.948 176.52" stroke="#2E2F26" stroke-width="2"/>
<path d="M213.355 201.406C213.355 201.406 213.355 223.494 208.614 223.494C198.269 223.494 187.727 199.05 187.727 199.05" stroke="#2E2F26" stroke-width="2"/>
<path d="M209.948 223.2C204.467 225.998 204.615 190.804 208.91 180.054" stroke="#2E2F26" stroke-width="2"/>
<path d="M140.357 200.069C140.422 200.14 140.491 200.254 140.563 200.412C140.635 200.569 140.69 200.723 140.727 200.872L139.723 201.565C139.518 201.55 139.303 201.513 139.077 201.454C138.858 201.387 138.653 201.308 138.463 201.216C138.273 201.124 138.12 201.033 138.005 200.943L136.669 198.703L136.004 199.495L136.398 201.923L135.847 202.151C135.662 202.092 135.469 202.004 135.268 201.887C135.067 201.764 134.893 201.605 134.748 201.412L134.826 198.768L134.14 195.191L134.395 194.949C134.47 194.951 134.574 194.971 134.709 195.011C134.85 195.05 134.989 195.096 135.125 195.148C135.262 195.201 135.365 195.256 135.435 195.313L135.847 198.436L138.26 194.547L138.665 194.484C138.948 194.784 139.156 195.136 139.287 195.54L137.433 197.774C137.717 198.249 138.033 198.732 138.381 199.224C138.734 199.709 139.087 200.123 139.438 200.466L140.357 200.069ZM144.479 197.664L146.323 200.108L145.905 200.599C145.715 200.595 145.496 200.555 145.248 200.479C145 200.403 144.776 200.293 144.578 200.148L143.581 197.936L142.136 198.212L142.521 200.652L141.834 201.235C141.542 201.18 141.304 201.065 141.122 200.891L141.028 197.799L140.341 194.222L140.597 193.979C140.691 193.978 140.831 194.007 141.015 194.066C141.207 194.123 141.369 194.189 141.502 194.263C141.751 194.089 142.019 193.946 142.305 193.834C142.598 193.72 142.881 193.636 143.156 193.579C143.437 193.522 143.686 193.5 143.904 193.513C144.098 193.584 144.286 193.683 144.468 193.809C144.65 193.936 144.812 194.069 144.956 194.209C145.105 194.341 145.218 194.458 145.295 194.561L145.479 196.556L144.479 197.664ZM143.959 194.628C143.75 194.627 143.514 194.653 143.253 194.708C142.99 194.755 142.728 194.827 142.467 194.922C142.212 195.016 141.974 195.134 141.753 195.276L142.012 197.3L144.236 196.447C144.224 196.111 144.193 195.786 144.143 195.469C144.098 195.146 144.037 194.865 143.959 194.628ZM147.304 192.283C146.976 192.172 146.676 192.003 146.404 191.776C146.396 191.683 146.415 191.572 146.463 191.443C146.516 191.313 146.585 191.191 146.668 191.077C146.758 190.961 146.844 190.887 146.926 190.854C147.019 190.84 147.126 190.86 147.25 190.915C147.38 190.969 147.499 191.038 147.607 191.122C147.721 191.206 147.792 191.292 147.82 191.382C147.829 191.482 147.806 191.597 147.753 191.727C147.698 191.85 147.628 191.966 147.544 192.073C147.467 192.18 147.387 192.25 147.304 192.283ZM149.399 191.955C149.071 191.845 148.771 191.676 148.498 191.448C148.49 191.355 148.51 191.244 148.557 191.115C148.611 190.985 148.679 190.863 148.763 190.749C148.852 190.634 148.939 190.56 149.021 190.527C149.113 190.512 149.221 190.532 149.344 190.587C149.474 190.641 149.593 190.71 149.701 190.795C149.816 190.878 149.887 190.965 149.914 191.055C149.923 191.155 149.901 191.27 149.847 191.399C149.793 191.523 149.723 191.638 149.639 191.746C149.561 191.852 149.481 191.922 149.399 191.955ZM149.884 192.527C149.958 192.529 150.063 192.55 150.197 192.59C150.332 192.629 150.464 192.676 150.594 192.73C150.731 192.783 150.834 192.838 150.903 192.894L151.587 198.374C151.5 198.59 151.364 198.824 151.181 199.075C151.005 199.326 150.835 199.531 150.671 199.692L148.636 200.01C148.529 200.013 148.386 199.988 148.209 199.935C148.031 199.875 147.843 199.8 147.647 199.709C147.449 199.612 147.267 199.505 147.1 199.39C146.94 199.273 146.821 199.16 146.743 199.051L146.689 196.913L146.002 193.337L146.258 193.094C146.332 193.096 146.437 193.12 146.573 193.166C146.715 193.212 146.857 193.277 146.999 193.363C147.14 193.442 147.25 193.543 147.33 193.665L147.747 196.88C147.804 197.282 147.869 197.674 147.942 198.054C148.015 198.427 148.102 198.744 148.204 199.005L150.322 198.248L150.315 196.347L149.628 192.77L149.884 192.527ZM157.33 197.173L157.655 197.628C157.594 197.84 157.496 198.058 157.363 198.281C157.228 198.498 157.084 198.696 156.93 198.875L153.758 199.108L153.374 199.431C153.081 199.376 152.844 199.261 152.661 199.087L152.567 195.994L151.881 192.417L152.136 192.175C152.211 192.177 152.319 192.201 152.461 192.246C152.609 192.283 152.748 192.329 152.878 192.383L155.733 191.613C155.935 191.696 156.116 191.799 156.278 191.922C156.445 192.045 156.606 192.185 156.759 192.343L156.705 192.898L153.272 193.344L153.514 195.259L155.686 194.586C155.914 194.665 156.107 194.753 156.264 194.85C156.428 194.945 156.572 195.071 156.698 195.227L156.641 195.823L153.641 196.191L153.947 198.127L157.33 197.173ZM160.632 194.258L163.023 193.884L163.145 194.654L162.625 194.827L162.807 196.62C162.734 196.841 162.619 197.071 162.461 197.312C162.302 197.546 162.145 197.749 161.99 197.922L159.965 198.239C159.858 198.242 159.708 198.211 159.515 198.147C159.329 198.082 159.134 197.997 158.929 197.895C158.722 197.785 158.539 197.669 158.377 197.545C158.215 197.416 158.105 197.295 158.047 197.182L157.614 192.715C157.663 192.593 157.734 192.447 157.829 192.277C157.929 192.099 158.04 191.927 158.162 191.759C158.283 191.585 158.395 191.44 158.498 191.322C158.964 191.155 159.471 191.028 160.017 190.943C160.571 190.856 161.099 190.848 161.603 190.918C161.709 190.989 161.818 191.086 161.933 191.21C162.046 191.328 162.137 191.435 162.206 191.532L162.297 193.006C162.191 193.063 162.047 193.109 161.863 193.144C161.679 193.173 161.519 193.185 161.383 193.179L161.05 191.966C160.703 191.993 160.337 192.047 159.951 192.127C159.571 192.2 159.227 192.308 158.919 192.451C158.87 192.782 158.847 193.17 158.85 193.615C158.858 194.053 158.889 194.503 158.942 194.967C158.994 195.425 159.062 195.856 159.147 196.261C159.237 196.665 159.338 197.001 159.447 197.267L161.736 196.504L161.572 195.467L160.607 195.061L160.632 194.258ZM168.744 195.388L169.069 195.844C169.008 196.056 168.91 196.273 168.777 196.496C168.643 196.713 168.498 196.911 168.344 197.09L165.172 197.323L164.788 197.647C164.495 197.591 164.258 197.476 164.075 197.302L163.982 194.21L163.295 190.633L163.55 190.391C163.625 190.392 163.733 190.416 163.875 190.461C164.023 190.499 164.162 190.545 164.292 190.599L167.147 189.828C167.349 189.911 167.53 190.015 167.692 190.138C167.859 190.26 168.02 190.4 168.173 190.559L168.119 191.114L164.687 191.559L164.928 193.475L167.1 192.801C167.328 192.88 167.521 192.968 167.678 193.065C167.842 193.161 167.987 193.287 168.112 193.443L168.055 194.039L165.055 194.406L165.361 196.342L168.744 195.388ZM173.106 193.188L174.95 195.633L174.531 196.123C174.342 196.119 174.123 196.079 173.875 196.003C173.626 195.927 173.403 195.817 173.205 195.673L172.207 193.46L170.763 193.737L171.148 196.176L170.461 196.76C170.169 196.704 169.931 196.589 169.748 196.415L169.655 193.323L168.968 189.746L169.224 189.504C169.318 189.502 169.457 189.531 169.642 189.59C169.834 189.648 169.996 189.713 170.129 189.787C170.378 189.613 170.646 189.47 170.932 189.358C171.224 189.245 171.508 189.16 171.782 189.104C172.064 189.046 172.313 189.024 172.531 189.037C172.725 189.108 172.912 189.207 173.094 189.334C173.276 189.46 173.439 189.593 173.583 189.733C173.732 189.865 173.845 189.982 173.922 190.085L174.105 192.08L173.106 193.188ZM172.586 190.152C172.377 190.151 172.141 190.178 171.88 190.232C171.617 190.28 171.355 190.351 171.094 190.446C170.838 190.54 170.601 190.658 170.38 190.801L170.639 192.825L172.863 191.971C172.851 191.636 172.819 191.31 172.77 190.994C172.725 190.67 172.664 190.389 172.586 190.152Z" fill="#E7F0F5"/>
<path d="M158.174 202.81L158.63 206.231L159.153 209.439L158.602 209.667C158.418 209.609 158.225 209.521 158.024 209.405C157.822 209.281 157.648 209.123 157.502 208.93L157.558 206.623L154.931 207.039L155.42 210.03L154.869 210.259C154.684 210.2 154.491 210.113 154.29 209.996C154.088 209.873 153.914 209.714 153.769 209.522L153.839 206.858L153.145 203.282L153.4 203.039C153.475 203.041 153.579 203.062 153.714 203.101C153.855 203.14 153.994 203.185 154.131 203.238C154.267 203.29 154.371 203.345 154.44 203.401L154.774 205.93L157.421 205.511L156.879 202.691L157.134 202.448C157.208 202.45 157.313 202.471 157.447 202.51C157.589 202.548 157.727 202.594 157.864 202.647C158.001 202.699 158.104 202.754 158.174 202.81ZM162.808 201.692C162.948 201.764 163.098 201.858 163.259 201.975C163.426 202.09 163.583 202.21 163.731 202.335C163.88 202.46 163.997 202.583 164.084 202.705L164.643 207.273C164.572 207.42 164.476 207.583 164.357 207.764C164.237 207.945 164.107 208.121 163.965 208.292C163.823 208.456 163.684 208.6 163.548 208.723L161.711 209.013C161.603 209.017 161.457 208.986 161.271 208.921C161.085 208.856 160.889 208.772 160.684 208.67C160.477 208.561 160.293 208.445 160.132 208.322C159.969 208.192 159.859 208.071 159.8 207.959L159.361 203.503C159.409 203.381 159.48 203.234 159.574 203.064C159.674 202.886 159.785 202.714 159.907 202.546C160.027 202.372 160.139 202.226 160.242 202.108C160.708 201.94 161.151 201.822 161.573 201.756C162 201.681 162.412 201.66 162.808 201.692ZM161.203 208.051L163.376 207.332C163.394 207.019 163.392 206.668 163.37 206.28C163.355 205.891 163.318 205.492 163.26 205.083C163.206 204.666 163.136 204.269 163.049 203.891C162.967 203.506 162.869 203.167 162.754 202.875C162.42 202.853 162.063 202.876 161.682 202.943C161.308 203.009 160.967 203.117 160.66 203.267C160.613 203.605 160.594 203.993 160.603 204.43C160.612 204.867 160.64 205.315 160.686 205.774C160.738 206.224 160.81 206.652 160.902 207.056C160.992 207.453 161.092 207.785 161.203 208.051ZM170.189 201.789L167.932 201.923L168.285 204.702L168.828 207.907L168.297 208.133C168.112 208.074 167.919 207.987 167.718 207.87C167.516 207.747 167.343 207.589 167.197 207.396L167.247 204.735L166.754 202.16L165.232 202.644C165.05 202.565 164.891 202.479 164.755 202.386C164.619 202.293 164.471 202.171 164.312 202.021L164.408 201.418L167.265 201.047L169.363 200.553C169.597 200.664 169.787 200.773 169.932 200.878C170.076 200.976 170.201 201.082 170.306 201.193L170.189 201.789ZM176.291 205.227L176.617 205.682C176.556 205.894 176.459 206.111 176.326 206.335C176.192 206.552 176.048 206.75 175.895 206.93L172.723 207.169L172.339 207.493C172.047 207.438 171.809 207.323 171.626 207.15L171.526 204.058L170.833 200.482L171.088 200.239C171.162 200.241 171.271 200.264 171.413 200.309C171.561 200.347 171.7 200.392 171.83 200.446L174.683 199.67C174.885 199.753 175.067 199.856 175.229 199.978C175.397 200.1 175.557 200.24 175.711 200.398L175.658 200.953L172.226 201.405L172.472 203.321L174.642 202.643C174.871 202.721 175.064 202.809 175.221 202.906C175.385 203.001 175.53 203.127 175.656 203.282L175.599 203.878L172.601 204.252L172.91 206.187L176.291 205.227ZM181.34 204.427L181.666 204.882C181.605 205.094 181.509 205.312 181.376 205.536C181.242 205.753 181.098 205.951 180.944 206.13L178.376 206.284L178.011 206.595C177.718 206.54 177.481 206.426 177.298 206.252L177.198 203.16L176.504 199.584L176.759 199.341C176.834 199.343 176.938 199.364 177.073 199.403C177.214 199.441 177.353 199.487 177.49 199.539C177.626 199.592 177.73 199.647 177.799 199.703L178.236 203.127L178.579 205.27L181.34 204.427Z" fill="#E7F0F5"/>
<path d="M141.97 225.219L142.324 225.652C142.277 225.867 142.194 226.091 142.075 226.322C141.955 226.547 141.824 226.754 141.682 226.943L138.531 227.379L138.168 227.726C137.873 227.689 137.629 227.59 137.435 227.428L137.141 224.349L136.225 220.823L136.464 220.565C136.538 220.562 136.648 220.579 136.793 220.615C136.943 220.643 137.084 220.68 137.217 220.725L140.017 219.773C140.224 219.843 140.412 219.934 140.581 220.047C140.756 220.158 140.925 220.288 141.088 220.436L141.07 220.993L137.674 221.658L138.039 223.554L140.162 222.743C140.396 222.807 140.594 222.882 140.757 222.969C140.926 223.054 141.079 223.17 141.214 223.317L141.195 223.916L138.226 224.476L138.656 226.388L141.97 225.219ZM146.96 224.106L147.314 224.539C147.267 224.755 147.184 224.978 147.065 225.21C146.945 225.435 146.814 225.641 146.672 225.83L144.118 226.143L143.773 226.476C143.478 226.44 143.233 226.341 143.04 226.179L142.746 223.099L141.829 219.574L142.069 219.316C142.143 219.313 142.249 219.327 142.386 219.358C142.529 219.387 142.67 219.424 142.81 219.468C142.95 219.512 143.056 219.56 143.13 219.612L143.78 223.002L144.256 225.119L146.96 224.106ZM151.296 218.683L149.051 218.958L149.579 221.709L150.322 224.873L149.806 225.131C149.618 225.085 149.42 225.009 149.212 224.905C149.002 224.795 148.819 224.648 148.661 224.464L148.545 221.806L147.891 219.268L146.402 219.845C146.216 219.778 146.052 219.702 145.91 219.617C145.768 219.533 145.612 219.42 145.444 219.28L145.502 218.673L148.331 218.124L150.394 217.5C150.635 217.597 150.831 217.693 150.982 217.789C151.132 217.879 151.263 217.976 151.376 218.081L151.296 218.683ZM157.602 221.733L157.956 222.167C157.909 222.382 157.826 222.606 157.707 222.837C157.587 223.062 157.456 223.269 157.314 223.457L154.163 223.894L153.8 224.241C153.505 224.204 153.26 224.105 153.067 223.943L152.773 220.863L151.857 217.338L152.096 217.08C152.17 217.077 152.28 217.094 152.425 217.13C152.575 217.158 152.716 217.195 152.849 217.24L155.649 216.288C155.856 216.358 156.044 216.449 156.212 216.562C156.388 216.673 156.557 216.803 156.72 216.951L156.702 217.508L153.305 218.173L153.671 220.069L155.794 219.257C156.027 219.322 156.225 219.397 156.388 219.484C156.558 219.569 156.711 219.685 156.846 219.832L156.827 220.431L153.858 220.99L154.288 222.903L157.602 221.733ZM161.813 219.258L163.812 221.578L163.426 222.095C163.236 222.103 163.015 222.077 162.763 222.017C162.51 221.957 162.28 221.862 162.073 221.73L160.934 219.587L159.511 219.956L160.053 222.365L159.405 222.991C159.109 222.955 158.865 222.855 158.671 222.694L158.378 219.614L157.461 216.089L157.7 215.831C157.794 215.823 157.936 215.843 158.124 215.89C158.318 215.935 158.485 215.99 158.622 216.055C158.86 215.866 159.118 215.706 159.396 215.576C159.68 215.444 159.958 215.341 160.228 215.267C160.505 215.192 160.753 215.153 160.971 215.153C161.169 215.211 161.363 215.298 161.553 215.412C161.742 215.527 161.913 215.649 162.066 215.779C162.223 215.901 162.343 216.011 162.427 216.109L162.739 218.088L161.813 219.258ZM161.098 216.262C160.889 216.274 160.656 216.316 160.398 216.387C160.14 216.451 159.883 216.539 159.628 216.651C159.379 216.761 159.149 216.894 158.939 217.05L159.328 219.054L161.492 218.059C161.458 217.725 161.406 217.402 161.336 217.09C161.27 216.77 161.191 216.494 161.098 216.262ZM167.513 217.987L169.512 220.308L169.126 220.824C168.936 220.832 168.715 220.806 168.463 220.746C168.21 220.687 167.98 220.591 167.773 220.46L166.634 218.316L165.21 218.685L165.753 221.094L165.105 221.721C164.809 221.684 164.565 221.585 164.371 221.423L164.078 218.343L163.161 214.818L163.4 214.56C163.494 214.552 163.635 214.572 163.824 214.619C164.018 214.664 164.185 214.72 164.322 214.785C164.56 214.595 164.817 214.435 165.096 214.305C165.38 214.173 165.658 214.07 165.928 213.996C166.205 213.921 166.453 213.883 166.671 213.882C166.869 213.94 167.063 214.027 167.252 214.141C167.442 214.256 167.613 214.379 167.766 214.509C167.923 214.631 168.043 214.74 168.127 214.838L168.439 216.817L167.513 217.987ZM166.798 214.991C166.589 215.003 166.356 215.045 166.098 215.116C165.84 215.181 165.583 215.269 165.327 215.38C165.079 215.49 164.849 215.623 164.638 215.78L165.028 217.783L167.192 216.788C167.158 216.454 167.106 216.131 167.036 215.819C166.97 215.499 166.891 215.223 166.798 214.991ZM172.518 212.67C172.662 212.734 172.818 212.819 172.985 212.925C173.159 213.03 173.324 213.14 173.48 213.255C173.636 213.371 173.761 213.486 173.855 213.602L174.699 218.126C174.638 218.277 174.553 218.446 174.445 218.634C174.337 218.822 174.217 219.006 174.087 219.185C173.955 219.358 173.825 219.51 173.697 219.641L171.882 220.046C171.775 220.056 171.627 220.034 171.437 219.981C171.247 219.928 171.047 219.856 170.835 219.767C170.622 219.671 170.431 219.566 170.263 219.454C170.092 219.335 169.974 219.221 169.909 219.113L169.191 214.693C169.231 214.568 169.293 214.417 169.376 214.242C169.465 214.058 169.564 213.879 169.675 213.704C169.785 213.522 169.887 213.37 169.982 213.246C170.437 213.049 170.872 212.904 171.289 212.811C171.71 212.711 172.12 212.664 172.518 212.67ZM171.314 219.117L173.439 218.264C173.436 217.95 173.412 217.601 173.367 217.215C173.327 216.827 173.265 216.431 173.181 216.027C173.102 215.614 173.007 215.222 172.896 214.85C172.79 214.471 172.671 214.139 172.538 213.854C172.203 213.854 171.848 213.899 171.472 213.99C171.103 214.079 170.769 214.208 170.473 214.376C170.447 214.717 170.452 215.105 170.489 215.541C170.525 215.977 170.581 216.422 170.656 216.876C170.736 217.323 170.835 217.745 170.951 218.142C171.067 218.533 171.188 218.858 171.314 219.117ZM178.894 215.45L180.893 217.77L180.507 218.287C180.317 218.295 180.096 218.269 179.843 218.209C179.591 218.149 179.361 218.054 179.154 217.922L178.015 215.779L176.591 216.147L177.134 218.557L176.485 219.183C176.19 219.147 175.946 219.047 175.752 218.886L175.458 215.806L174.542 212.281L174.781 212.022C174.875 212.015 175.016 212.035 175.204 212.082C175.399 212.127 175.565 212.182 175.703 212.247C175.94 212.058 176.198 211.898 176.476 211.767C176.761 211.636 177.039 211.533 177.309 211.459C177.586 211.383 177.833 211.345 178.052 211.344C178.25 211.403 178.443 211.489 178.633 211.604C178.823 211.719 178.994 211.841 179.146 211.971C179.304 212.093 179.424 212.203 179.508 212.301L179.82 214.28L178.894 215.45ZM178.179 212.453C177.97 212.466 177.736 212.508 177.479 212.579C177.22 212.643 176.963 212.731 176.708 212.843C176.46 212.953 176.23 213.086 176.019 213.242L176.409 215.245L178.573 214.251C178.539 213.917 178.487 213.594 178.416 213.282C178.351 212.961 178.272 212.685 178.179 212.453Z" fill="#D06857"/>
<path d="M142.658 207.828C143.063 209.436 142.084 211.068 140.464 211.469C138.845 211.871 137.207 210.888 136.802 209.279C136.397 207.671 137.377 206.039 138.996 205.638C140.615 205.236 142.253 206.219 142.658 207.828Z" stroke="#E7F0F5" stroke-width="2"/>
<ellipse cx="2.51037" cy="2.50434" rx="2.51037" ry="2.50434" transform="matrix(0.970624 -0.240608 0.244202 0.969726 132.32 207.298)" fill="#E7F0F5"/>
<ellipse cx="1.00415" cy="1.00174" rx="1.00415" ry="1.00174" transform="matrix(0.970624 -0.240608 0.244202 0.969726 134.515 207.786)" fill="#2E2F26"/>
<path d="M135.232 210.99L133.297 215.308M131.343 215.791L132.565 216.521L133.297 215.308M133.297 215.308L132.075 214.579" stroke="#E7F0F5" stroke-width="2"/>
<rect width="10.039" height="5.00605" rx="1" transform="matrix(0.886332 0.465641 -0.46775 0.882497 143.224 204.591)" fill="#E7F0F5"/>
<path d="M223.332 133.727C219.036 152.096 210 177.491 208.37 182.761C206.741 188.031 206.148 198.76 206.148 198.76C213.703 202.315 221.258 211.209 225.406 191.797C229.554 172.385 233.257 143.208 237.109 139.801C240.961 136.394 249.701 129.135 249.701 129.135C249.701 129.135 262.458 118.286 261.107 116.839C257.749 113.241 248.516 125.728 246.59 123.358C245.211 121.66 261.592 107.223 258.885 103.655C255.626 99.3592 243.479 120.839 241.701 118.321C240.478 116.588 252.96 97.1371 248.071 95.0632C244.654 93.6134 237.998 117.58 235.183 116.839C233.178 116.312 241.85 97.3607 237.109 96.9889C233.723 96.7234 229.406 115.062 229.406 115.062C229.406 115.062 226.201 123.505 225.406 123.358C221.406 122.617 225.406 106.766 217.555 109.136C214.888 109.941 223.332 133.727 223.332 133.727Z" fill="#FAE2CA"/>
<path d="M206 198.845C206 192.623 207.926 182.994 209.851 178.402C212.518 192.919 207.778 196.771 218.592 203.882C214.296 202.104 208.666 200.326 206 198.845Z" fill="#EDC196"/>
<path d="M208.37 182.761C209.704 177.872 219.036 152.096 223.332 133.727C223.332 133.727 214.888 109.941 217.555 109.136C225.406 106.766 221.406 122.617 225.406 123.358C226.201 123.505 229.406 115.062 229.406 115.062C229.406 115.062 233.723 96.7234 237.109 96.9889C241.85 97.3607 233.178 116.312 235.183 116.839C237.998 117.58 244.654 93.6134 248.071 95.0632C252.96 97.1371 240.478 116.588 241.701 118.321C243.479 120.839 255.626 99.3592 258.885 103.655C261.592 107.223 245.211 121.66 246.59 123.358C248.516 125.728 257.749 113.241 261.107 116.839C262.458 118.286 249.701 129.135 249.701 129.135C249.701 129.135 240.961 136.394 237.109 139.801C233.257 143.208 229.554 172.385 225.406 191.797C221.258 211.209 213.703 202.315 206.148 198.76" stroke="#2E2F26" stroke-width="2"/>
<path d="M152.47 409.771C152.47 409.771 159.587 413.041 160.414 418.135C161.196 422.952 159.558 427.566 158.323 432.289C155.763 442.075 158.323 449.462 158.323 455.69C158.323 463.462 154.711 466.636 146.726 483.055C126.903 523.818 80.7575 494.567 96.1565 474.751C107.397 460.287 117.796 454.287 120.681 435.308C121.701 428.604 119.29 420.005 122.773 414.172C125.814 409.076 135.73 407.856 135.73 407.856V413.531C140.834 412.457 148.423 414.168 149.197 418.135C150.054 422.53 149.087 423.724 148.553 424.046C150.005 423.486 151.337 422.941 152.47 422.38V409.771Z" fill="#57657C"/>
<path d="M148.246 424.164C147.752 424.353 147.244 424.545 146.726 424.74C141.212 426.816 143.113 441.347 139.501 449.84C133.52 463.902 127.756 483.781 114.598 475.883C106.423 470.977 126.75 459.02 129.235 444.556C130.185 439.026 132.673 430.489 131.712 425.495C131.712 425.495 131.391 424.899 131.135 423.708C130.833 422.302 130.622 420.067 131.136 417.002C132.087 411.341 148.056 412.284 149.197 418.135C150.054 422.53 149.087 423.724 148.553 424.046C148.376 424.153 148.246 424.164 148.246 424.164Z" fill="#57657C"/>
<path d="M156.232 418.135C156.612 420.966 152.24 422.664 146.726 424.74C141.212 426.816 143.113 441.347 139.501 449.84C133.52 463.902 127.756 483.781 114.598 475.883C106.423 470.977 126.75 459.02 129.235 444.556C130.45 437.485 134.179 425.495 129.996 422.286C127.353 420.259 127.335 418.135 128.095 415.681M152.47 409.771C152.47 409.771 159.587 413.041 160.414 418.135C161.196 422.952 159.558 427.566 158.323 432.289C155.763 442.075 158.323 449.462 158.323 455.69C158.323 463.462 154.711 466.636 146.726 483.055C126.903 523.818 80.7575 494.567 96.1565 474.751C107.397 460.287 117.796 454.287 120.681 435.308C121.701 428.604 119.29 420.005 122.773 414.172C125.814 409.076 135.73 407.856 135.73 407.856M131.712 425.495C131.712 425.495 130.186 422.664 131.136 417.002C132.087 411.341 148.056 412.284 149.197 418.135C150.337 423.985 148.246 424.164 148.246 424.164" stroke="#2E2F26" stroke-width="2"/>
<path d="M147.878 432.595C145.804 431.711 130.397 431.711 127.879 429.061C125.361 426.41 122.99 437.454 125.509 440.547C128.027 443.639 143.434 446.315 147.878 442.608C152.322 438.902 149.952 433.479 147.878 432.595Z" fill="#414C5E" stroke="#2E2F26" stroke-width="2"/>
<path d="M164.617 412.569C166.004 409.861 168.196 407.917 170.987 406.678L171.244 418.113C172.656 418.429 174.607 418.604 176.963 420.051L176.765 418.606C176.765 418.606 176.517 416.122 176.963 414.358C177.776 411.139 183.032 409.097 186.542 409.872V406.089C189.298 406.104 193.519 408.232 195.16 410.433C198.417 414.801 194.905 423.28 196.877 428.352C199.686 435.579 205.014 438.377 209.924 444.394C217.778 454.02 227.263 459.242 230.009 470.505C233.516 484.887 219.022 496.275 203.572 488.254C191.526 482 185.33 473.407 180.225 468.116C173.063 460.694 167.602 457.876 164.603 452.074C162.199 447.424 162.854 416.013 164.617 412.569Z" fill="#57657C"/>
<path d="M170.987 406.678C168.196 407.917 166.004 409.861 164.617 412.569C162.854 416.013 162.199 447.424 164.603 452.074C167.602 457.876 173.063 460.694 180.225 468.116C185.33 473.407 191.526 482 203.572 488.254C219.022 496.275 233.516 484.887 230.009 470.505C227.263 459.242 217.778 454.02 209.924 444.394C205.014 438.377 199.686 435.579 196.877 428.352C194.905 423.28 198.417 414.801 195.16 410.433C193.519 408.232 189.298 406.104 186.542 406.089M168.723 414.358C168.723 420.161 172.5 416.406 178.336 421.014C182.1 426.111 177.871 433.485 182.113 438.933C186.233 444.224 207.177 473.577 217.649 464.02C221.495 460.51 197.375 443.712 191.898 432.448C190.328 429.218 188.808 421.014 189.323 418.113C189.838 415.211 190.868 416.918 191.898 412.993M176.963 420.051C176.963 420.051 176.517 416.122 176.963 414.358C178.062 410.01 187.266 407.809 189.323 411.798C190.094 413.291 189.527 417.259 189.527 417.259" stroke="#2E2F26" stroke-width="2"/>
<path d="M191.726 421.551C189.949 425.822 177.357 427.883 175.283 426.999C173.209 426.116 171.135 432.595 173.654 435.687C176.172 438.78 187.875 435.86 192.319 432.154C196.763 428.447 193.504 417.281 191.726 421.551Z" fill="#414C5E" stroke="#2E2F26" stroke-width="2"/>
</svg>
