<svg width="263" height="476" viewBox="0 0 263 476" fill="none" xmlns="http://www.w3.org/2000/svg">
<path d="M130.986 62.0052C119.579 69.5603 114.393 70.3009 100.469 76.3746C90.603 74.0499 85.5113 78.583 84.1642 84.5C82.4983 83.5 84.1642 89 84.5 94C95.5 109.5 103.255 99.3183 104 102C109 120 71.5 148 58 169C31 164 39.9983 126 51.4983 97.5C60.3731 75.506 58.4983 27 78.1003 32.822C100.469 -5.10135 127.282 10.0087 127.282 10.0087C127.282 10.0087 138.135 -3.27098 157.058 2.45364C174.686 7.78657 184.464 21.2672 184.464 21.2672C184.464 21.2672 189.375 18.059 193.648 19.0451C205.019 21.6692 192.838 42.3748 181.797 46.1544C165.353 51.7836 152.317 35.6366 152.317 35.6366C149.058 44.0805 142.392 54.4501 130.986 62.0052Z" fill="#8FA3C4"/>
<path d="M85.4167 95.5779C88.9999 101.5 92 102 102 101.5C103.5 103.5 104.794 102.146 104.5 105C103.26 117.022 93.4999 129.5 81.4999 141.5C60.9028 162.097 63.9999 162.5 61.5 162.5C59.0001 162.5 66.9999 148 78.9999 132C90.9999 116 81.1185 103.946 85.4167 95.5779Z" fill="#7B8CAA"/>
<path d="M55.9987 88C48.5026 105 44.1751 105.408 42.8418 122C34 147 51.8419 175 55.9986 167.5C60.1553 160 41.9958 149.5 46.5 135C51.0042 120.5 57.0002 100 61.5002 88C66.0002 76 65.063 28.9699 75.5808 37.8582L77.951 32.6734C58.4725 23.4356 63.4947 71.0001 55.9987 88Z" fill="#BDD6FF"/>
<path d="M157.502 2.89776C139.875 -3.47201 126.392 9.56396 126.392 9.56396C126.392 9.56396 126.541 12.8229 134.984 7.93437C143.428 3.04581 149.65 4.08284 155.131 5.11977C160.612 6.15671 175.13 9.26753 157.502 2.89776Z" fill="#BDD6FF"/>
<path d="M80.322 29.2661C69.8047 47.6349 74.6917 94.4471 77.5068 54.1536C80.322 13.86 110.986 10.1565 123.43 10.8972C135.873 11.6379 126.985 7.63823 116.319 7.63818C105.653 7.63814 90.8393 10.8973 80.322 29.2661Z" fill="#BDD6FF"/>
<path d="M57.0001 169C27.5 158 44.1007 110.501 52.4954 96.0003C60.8901 81.5 58.8422 23.4891 78.3207 32.7269" stroke="#2E2F26" stroke-width="2"/>
<path d="M127.875 9.26773C127.875 9.26773 137.355 -3.76841 157.502 2.89793C177.649 9.56428 184.315 21.1188 184.315 21.1188" stroke="#2E2F26" stroke-width="2"/>
<path d="M84.1734 84.966C75.5817 79.0405 66.6935 55.3384 80.3221 29.2661C93.9508 3.19369 121.653 5.71223 126.393 9.38751" stroke="#2E2F26" stroke-width="2"/>
<path d="M100.469 76.3743C100.469 76.3743 119.579 69.56 130.985 62.0049C142.392 54.4498 149.058 44.0801 152.317 35.6362" stroke="#2E2F26" stroke-width="2"/>
<path d="M59.495 169C70 144 98.5 138 104.5 105" stroke="#2E2F26" stroke-width="2"/>
<path d="M168.464 18.8967C172.909 23.1929 176.464 22.1558 180.908 22.1558C186.493 22.1558 189.838 16.399 194.833 18.8967C203.721 23.341 194.818 38.5997 185.945 44.0802C175.871 50.302 158.243 45.2653 150.688 32.3773" stroke="#2E2F26" stroke-width="2" stroke-linejoin="round"/>
<path d="M180.612 22.4518C178.685 23.5797 174.982 23.0446 169.945 20.9706C165.353 18.0079 171.575 30.3032 183.87 25.2665C198.646 19.2139 198.028 27.501 198.24 25.8591C199.573 15.4894 186.685 18.8966 180.612 22.4518Z" fill="#BDD6FF"/>
<path d="M102.289 77.313C72.8099 68.221 82.7354 112.718 104.067 100.126" stroke="#2E2F26" stroke-width="2"/>
<path d="M102.542 101.261C104.738 103.949 106.967 106.363 109.218 108.52" stroke="#2E2F26" stroke-width="2" stroke-linejoin="round"/>
<path d="M150.692 139.629C143.103 141.733 134.249 138.296 139.878 134.592C139.878 134.592 138.989 128.222 138.989 123.334C125.953 120.519 112.176 115.779 102.547 101.261C100.029 102.002 88.326 105.854 84.6226 91.6323C79.717 72.7951 100.325 76.6703 100.325 76.6703C100.325 76.6703 121.805 68.5226 133.656 60.0788C145.507 51.635 152.618 35.7842 152.618 35.7842C152.618 35.7842 159.877 43.3729 165.061 45.1169C170.246 46.8608 177.801 47.0426 177.801 47.0426C177.801 47.0426 182.245 52.5238 183.134 63.6341C185.801 59.9307 190.574 58.4709 191.874 60.9676C194.986 66.9409 192.911 75.0408 187.727 80.9663C189.801 89.2621 188.715 94.5249 184.616 102.15C178.715 113.127 157.655 121.26 157.655 121.26L158.84 130.148C164.765 132.222 156.866 137.917 150.692 139.629Z" fill="#FAE2CA"/>
<path d="M158.099 121.26C152.173 122.741 145.655 124.963 138.841 123.334C138.841 126.445 138.646 125.26 139.582 127.333C146.248 131.778 155.284 131.037 158.395 124.815C158.395 122.445 158.795 123.169 158.099 121.26Z" fill="#EDC196"/>
<path d="M100.474 76.3743C100.474 76.3743 119.584 69.56 130.99 62.0049C142.397 54.4498 149.063 44.0801 152.322 35.6362C152.322 35.6362 165.654 48.9687 177.95 47.3391C183.875 55.783 181.617 61.7021 183.134 71.6338C183.218 72.1812 183.339 72.7268 183.488 73.2722C183.989 74.4138 184.423 75.5912 184.779 76.804C188.765 86.0399 196.154 96.19 170.098 114.89C185.171 99.8172 187.779 87.0466 184.779 76.804C184.266 75.617 183.81 74.4452 183.488 73.2722C176.076 56.3875 153.951 47.3391 153.951 47.3391C148.914 57.7088 117.065 78.8926 107.88 77.7075C98.6957 76.5224 100.474 76.3743 100.474 76.3743Z" fill="#EDC196"/>
<path d="M182.986 64.3747C193.652 49.8573 197.948 72.0779 187.578 81.1143" stroke="#2E2F26" stroke-width="2"/>
<path d="M102.399 77.4111C72.9194 68.3191 82.8449 112.816 104.177 100.224" stroke="#2E2F26" stroke-width="2"/>
<path d="M177.653 46.895C182.986 51.9317 182.986 64.9679 182.986 71.0415" stroke="#2E2F26" stroke-width="2" stroke-linejoin="round"/>
<path d="M183.134 72.8184C196.467 91.3356 184.468 107.927 167.876 116.371C150.085 127.324 124.491 128.181 102.251 100.965" stroke="#2E2F26" stroke-width="2" stroke-linejoin="round"/>
<path d="M138.841 123.334L140.174 136.074M158.84 132.963L158.099 121.112" stroke="#2E2F26" stroke-width="2"/>
<path d="M157.358 89.1142C163.136 86.1516 161.654 79.7631 160.321 78.5964C158.988 77.4297 154.975 80.2262 153.359 82.1517" stroke="#2E2F26" stroke-width="2"/>
<path d="M133.212 49.1171C121.657 43.3398 118.25 50.3021 113.509 58.0053" stroke="#2E2F26" stroke-width="2"/>
<path d="M172.765 42.7467C163.136 36.0805 158.247 39.1914 153.507 46.8945" stroke="#2E2F26" stroke-width="2"/>
<path d="M171.342 50.1535C180.912 52.8199 181.06 75.6331 170.394 77.5589C159.728 79.4847 158.543 67.9299 158.099 62.1526C157.655 56.3753 161.772 47.487 171.342 50.1535Z" fill="white"/>
<path d="M158.099 62.1526C157.655 56.3753 161.772 47.487 171.342 50.1535C177.838 51.9633 179.993 63.0548 177.372 70.5965" stroke="#2E2F26" stroke-width="2"/>
<path d="M164.617 58.5978C159.057 60.4494 159.284 74.7448 166.543 75.0411C173.802 75.3374 172.913 68.2268 172.469 64.9678C172.024 61.7088 170.177 56.7462 164.617 58.5978Z" fill="#681F2E"/>
<path d="M164.65 60.9203C160.321 63.042 161.019 72.8903 166.859 73.1103C172.699 73.3303 171.773 66.3627 171.03 64.5317C170.288 62.7007 168.979 58.7987 164.65 60.9203Z" fill="#2E2F26"/>
<path d="M164.188 62.3488C162.341 63.6634 163.538 69.5442 165.854 68.9216C168.17 68.2989 167.832 64.6666 167.467 63.6634C167.103 62.6602 166.036 61.0343 164.188 62.3488Z" fill="white"/>
<path d="M161.95 100.076C160.173 96.2247 154.544 95.0102 145.655 91.6326C138.248 88.8179 136.381 88.7945 133.656 91.0399C126.973 96.5468 127.588 110.148 136.767 114.298C147.581 119.186 165.255 107.235 161.95 100.076Z" fill="#DD9B84"/>
<path d="M158.692 96.8174C146.84 105.409 136.915 94.7642 132.619 91.9289C132.619 91.9289 133.804 90.4475 136.619 89.4105C139.434 88.3735 158.692 96.8174 158.692 96.8174Z" fill="white"/>
<path d="M148.174 114.446C145.211 105.261 135.138 105.854 130.545 107.631C130.545 107.631 132.619 113.113 137.952 114.742C143.285 116.372 148.174 114.446 148.174 114.446Z" fill="#F7D6C9"/>
<path d="M161.95 100.076C160.173 96.2247 154.544 95.0102 145.655 91.6326C138.248 88.8179 136.381 88.7945 133.656 91.0399C126.973 96.5468 127.588 110.148 136.767 114.298C147.581 119.186 165.255 107.235 161.95 100.076Z" stroke="#2E2F26" stroke-width="2"/>
<path d="M132.619 91.9287C136.915 94.764 146.84 105.409 158.692 96.8173" stroke="#2E2F26" stroke-width="2"/>
<path d="M130.545 107.631C135.138 105.854 145.211 105.261 148.174 114.446" stroke="#2E2F26" stroke-width="2"/>
<path d="M168.321 18.9324C172.765 23.2285 176.32 22.1914 180.764 22.1914C186.349 22.1914 189.694 16.4347 194.689 18.9324C203.577 23.3766 194.674 38.6354 185.801 44.1159C175.727 50.3376 158.099 45.3009 150.544 32.413" stroke="#2E2F26" stroke-width="2" stroke-linejoin="round"/>
<path d="M100.474 76.3743C100.474 76.3743 119.584 69.56 130.99 62.0049C142.397 54.4498 149.063 44.0801 152.322 35.6362" stroke="#2E2F26" stroke-width="2"/>
<path d="M124.62 58.3009C114.102 63.9302 120.916 89.1136 134.1 86.4472C147.285 83.7807 145.359 68.2263 143.285 63.9303C141.211 59.6343 135.137 52.6715 124.62 58.3009Z" fill="white"/>
<path d="M143.285 63.9303C141.211 59.6343 135.137 52.6715 124.62 58.3009C118.845 61.3916 118.295 70.3767 121.155 77.4108C122.553 80.8486 124.766 83.8204 127.581 85.4102" stroke="#2E2F26" stroke-width="2"/>
<path d="M127.898 65.8347C122.109 69.3402 125.859 85.0224 133.117 83.3619C140.374 81.7015 139.314 72.0155 138.172 69.3403C137.031 66.6651 133.687 62.3292 127.898 65.8347Z" fill="#681F2E"/>
<path d="M129.364 68.3877C125.422 70.7977 127.976 81.5792 132.917 80.4376C137.858 79.2961 137.136 72.637 136.359 70.7978C135.582 68.9585 133.305 65.9776 129.364 68.3877Z" fill="#2E2F26" stroke="#2E2F26" stroke-width="2"/>
<path d="M129.228 69.2043C127.38 70.6284 128.577 76.9993 130.893 76.3247C133.209 75.6502 132.871 71.7152 132.507 70.6284C132.142 69.5416 131.075 67.7802 129.228 69.2043Z" fill="white"/>
<path d="M143.285 63.9303C141.211 59.6343 135.137 52.6715 124.62 58.3009C118.845 61.3916 118.295 70.3767 121.155 77.4108C122.553 80.8486 124.766 83.8204 127.581 85.4102" stroke="#2E2F26" stroke-width="2"/>
<path d="M132.323 306.877L136.027 384.057C136.027 384.057 144.288 382.566 147.285 385.835C149.609 388.369 149.211 394.131 149.211 394.131L152.174 393.094L156.766 306.877C156.766 306.877 149.285 308.067 144.47 308.062C139.714 308.058 132.323 306.877 132.323 306.877Z" fill="#FAE2CA"/>
<path d="M171.283 388.205L167.728 303.915C167.728 303.915 173.988 304.803 178.024 304.803C182.059 304.803 188.319 304.211 188.319 304.211L186.394 380.058C186.394 380.058 180.441 379.818 178.246 382.28C176.169 384.609 176.765 390.131 176.765 390.131L171.283 388.205Z" fill="#FAE2CA"/>
<path d="M157.358 306.581H132.916C132.916 306.581 130.377 313.166 132.916 315.617C137.212 319.765 151.729 319.321 155.285 315.617C157.74 313.059 157.358 306.581 157.358 306.581Z" fill="#EDC196"/>
<path d="M168.173 312.803C166.865 309.65 168.173 303.618 168.173 303.618L188.023 303.914C188.023 303.914 189.382 310.235 188.023 313.692C186.509 317.543 170.322 317.988 168.173 312.803Z" fill="#EDC196"/>
<path d="M136.027 384.057L132.323 306.877M156.766 306.877L152.174 393.094M167.728 303.618L171.283 388.205M186.394 380.057L188.319 303.618" stroke="#2E2F26" stroke-width="2"/>
<path d="M115.372 302.761C112.705 298.613 118.779 246.468 118.779 246.468C118.779 246.468 137.906 250.429 150.184 249.431C156.801 248.893 159.745 247.306 166.331 246.468C178.277 244.947 197.736 245.283 197.736 245.283C197.736 245.283 205.439 289.724 203.217 299.353C201.85 305.279 169.725 304.82 163.876 302.45C160.077 311.886 117.392 305.903 115.372 302.761Z" fill="#C1919B"/>
<path d="M116.769 268.065C118.25 260.806 118.095 249.674 118.842 246.437C148.322 250.585 197.059 244.956 197.059 244.956C197.059 244.956 202.541 281.694 202.541 284.953C197.059 259.473 171.135 274.731 116.769 268.065Z" fill="#A27881"/>
<path d="M118.842 246.437C118.842 246.437 112.768 298.581 115.435 302.729C117.515 305.964 162.691 312.21 164.173 301.544C165.175 294.329 165.062 255.769 165.062 255.769M164.101 302.729C169.95 305.099 201.914 305.247 203.281 299.322C205.503 289.693 197.8 245.251 197.8 245.251" stroke="#2E2F26" stroke-width="2"/>
<path d="M98.9841 276.655L93.6591 208.069C93.6591 208.069 98.6061 212.017 102.399 213.55C105.053 214.624 109.51 215.624 109.51 215.624C109.51 215.624 107.051 252.066 108.599 259.977C109.732 265.764 113.546 269.988 113.759 275.795C113.865 278.709 113.759 276.953 113.759 278.958C113.759 280.334 113.417 285.596 111.18 284.908C108.943 284.221 110.148 273.543 108.599 273.388C107.051 273.234 107.051 278.89 107.051 284.221C107.051 288.923 115.138 294.537 112.557 297.976C111.389 299.532 105.387 292.989 103.61 288.863C104.505 294.053 112.029 297.416 108.599 301.415C107.567 302.618 102.299 295.185 100.341 290.067C99.8535 288.793 99.5267 287.305 99.3123 285.768C99.4198 291.443 103.524 294.193 102.234 298.492C101.717 300.211 99.6056 295.878 97.588 290.067C96.4538 286.8 98.9841 276.655 98.9841 276.655Z" fill="#FAE2CA"/>
<path d="M109.806 216.068C104.621 213.994 97.3625 211.18 94.2516 209.254V216.957C96.9181 221.253 102.992 225.845 109.065 223.031C109.065 220.512 109.065 218.735 109.806 216.068Z" fill="#EDC196"/>
<path d="M93.6591 208.069L98.9841 276.655C98.9841 276.655 96.4538 286.8 97.588 290.067C99.6056 295.878 101.717 300.211 102.234 298.492C103.524 294.193 99.4198 291.443 99.3123 285.768C99.2213 280.963 99.1363 274.936 99.1363 274.936C99.1363 274.936 98.2226 284.53 100.341 290.067C102.299 295.185 107.567 302.618 108.599 301.415C112.029 297.416 104.505 294.053 103.61 288.863M103.61 288.863C102.697 283.569 103.61 281.101 103.61 281.101C103.61 281.101 101.664 284.345 103.61 288.863ZM103.61 288.863C105.387 292.989 111.389 299.532 112.557 297.976C115.138 294.537 107.051 288.923 107.051 284.221C107.051 278.89 107.051 273.234 108.599 273.388C110.148 273.543 108.943 284.221 111.18 284.908C113.417 285.596 113.759 280.334 113.759 278.958C113.759 276.953 113.865 278.709 113.759 275.795C113.546 269.988 109.732 265.764 108.599 259.977C107.051 252.066 109.51 215.624 109.51 215.624" stroke="#2E2F26" stroke-width="2"/>
<path d="M223.428 101.769C219.132 120.138 210.096 145.533 208.466 150.803C206.837 156.073 206.244 166.802 206.244 166.802C213.799 170.357 221.354 179.251 225.502 159.839C229.65 140.427 233.353 111.25 237.205 107.843C241.057 104.436 249.797 97.1769 249.797 97.1769C249.797 97.1769 262.554 86.3282 261.203 84.8815C257.845 81.2829 248.612 93.7698 246.686 91.3996C245.307 89.702 261.688 75.2652 258.981 71.6972C255.722 67.4012 243.575 88.8812 241.797 86.3629C240.574 84.6301 253.056 65.1791 248.167 63.1052C244.75 61.6554 238.094 85.6222 235.279 84.8815C233.273 84.3536 241.945 65.4027 237.205 65.0309C233.819 64.7654 229.502 83.1039 229.502 83.1039C229.502 83.1039 226.297 91.5467 225.502 91.3996C221.502 90.6588 225.502 74.8081 217.651 77.1783C214.984 77.9833 223.428 101.769 223.428 101.769Z" fill="#FAE2CA"/>
<path d="M206.096 166.887C206.096 160.665 208.022 151.036 209.947 146.444C212.614 160.961 207.873 164.813 218.688 171.924C214.392 170.146 208.762 168.368 206.096 166.887Z" fill="#EDC196"/>
<path d="M208.466 150.803C209.799 145.914 219.132 120.138 223.428 101.769C223.428 101.769 214.984 77.9833 217.651 77.1783C225.502 74.8081 221.502 90.6588 225.502 91.3996C226.297 91.5467 229.502 83.1039 229.502 83.1039C229.502 83.1039 233.819 64.7654 237.205 65.0309C241.945 65.4027 233.273 84.3536 235.279 84.8815C238.094 85.6222 244.75 61.6554 248.167 63.1052C253.056 65.1791 240.574 84.6301 241.797 86.3629C243.575 88.8812 255.722 67.4012 258.981 71.6972C261.688 75.2652 245.307 89.702 246.686 91.3996C248.612 93.7698 257.845 81.2829 261.203 84.8815C262.554 86.3282 249.797 97.1769 249.797 97.1769C249.797 97.1769 241.057 104.436 237.205 107.843C233.353 111.25 229.65 140.427 225.502 159.839C221.354 179.251 213.799 170.357 206.244 166.802" stroke="#2E2F26" stroke-width="2"/>
<path d="M120.176 216.217C110.251 216.217 95.7329 213.106 88.7706 203.181C90.3999 195.478 103.881 150.444 109.806 145.111C115.732 139.778 139.434 130.149 139.434 130.149L140.026 134.593C140.026 134.593 133.064 138.741 145.507 140.074C151.01 140.664 156.934 137.754 158.84 135.482C163.284 130.89 158.84 130.149 158.84 130.149V127.927C158.84 127.927 181.505 126.89 183.431 127.927C185.356 128.964 209.651 145.555 209.651 145.555L205.8 166.887L213.651 170.739C213.651 170.739 213.651 189.997 209.355 192.515C205.059 195.033 195.726 182.738 195.726 182.738C195.726 182.738 198.028 201.461 198.541 214.588C198.886 223.432 202.757 239.03 201.207 243.326C199.658 247.622 171.135 245.252 163.432 247.474C149.032 251.628 116.472 247.474 115.583 245.252C114.694 243.03 118.207 221.811 120.176 216.217Z" fill="black"/>
<path d="M139.879 134.593C134.249 138.296 143.103 141.734 150.692 139.629C156.866 137.917 164.765 132.222 158.84 130.148" stroke="#2E2F26" stroke-width="2"/>
<path d="M139.286 129.853C133.656 133.556 114.991 140.556 109.658 145.111C105.149 148.962 87.7336 201.403 88.6224 203.329C89.5113 205.255 101.659 217.55 119.731 216.217" stroke="#2E2F26" stroke-width="2"/>
<path d="M120.176 172.664C118.694 187.774 122.99 208.217 120.176 216.217C118.207 221.811 114.694 243.03 115.583 245.252C116.472 247.474 149.032 251.628 163.432 247.474C171.135 245.252 199.658 247.622 201.207 243.326C202.757 239.03 198.886 223.432 198.541 214.587C198.028 201.461 195.726 182.737 195.726 182.737" stroke="#2E2F26" stroke-width="2"/>
<path d="M158.692 127.927C169.357 127.927 177.802 126.593 182.839 127.927C188.572 129.444 193.801 137.111 209.948 145.555" stroke="#2E2F26" stroke-width="2"/>
<path d="M213.355 170.59C213.355 170.59 213.355 192.811 208.614 192.811C198.269 192.811 187.727 168.22 187.727 168.22" stroke="#2E2F26" stroke-width="2"/>
<path d="M209.948 192.515C204.467 195.329 204.615 159.924 208.91 149.11" stroke="#2E2F26" stroke-width="2"/>
<path d="M140.348 169.195C140.413 169.266 140.482 169.38 140.554 169.537C140.626 169.695 140.68 169.848 140.717 169.997L139.713 170.692C139.508 170.677 139.293 170.64 139.068 170.581C138.848 170.514 138.643 170.435 138.454 170.343C138.264 170.252 138.111 170.161 137.996 170.071L136.662 167.831L135.997 168.624L136.389 171.053L135.837 171.281C135.653 171.223 135.46 171.135 135.26 171.018C135.058 170.894 134.885 170.736 134.74 170.543L134.82 167.898L134.137 164.321L134.393 164.078C134.467 164.08 134.572 164.101 134.706 164.14C134.847 164.179 134.986 164.225 135.122 164.277C135.259 164.33 135.362 164.385 135.431 164.441L135.841 167.566L138.256 163.673L138.661 163.609C138.945 163.909 139.152 164.261 139.283 164.666L137.427 166.901C137.711 167.376 138.026 167.86 138.374 168.352C138.726 168.836 139.078 169.25 139.429 169.593L140.348 169.195ZM144.471 166.785L146.313 169.229L145.894 169.72C145.704 169.716 145.485 169.676 145.237 169.6C144.989 169.525 144.766 169.415 144.568 169.27L143.573 167.058L142.128 167.336L142.512 169.776L141.824 170.36C141.532 170.305 141.294 170.19 141.112 170.016L141.021 166.923L140.338 163.346L140.593 163.103C140.688 163.102 140.827 163.13 141.012 163.189C141.203 163.247 141.365 163.312 141.498 163.386C141.747 163.212 142.015 163.068 142.301 162.956C142.594 162.842 142.877 162.757 143.152 162.701C143.433 162.643 143.682 162.62 143.9 162.633C144.094 162.704 144.281 162.803 144.463 162.93C144.645 163.056 144.808 163.189 144.951 163.329C145.1 163.46 145.213 163.578 145.29 163.68L145.472 165.676L144.471 166.785ZM143.954 163.749C143.745 163.748 143.509 163.775 143.248 163.829C142.986 163.877 142.724 163.949 142.462 164.044C142.207 164.138 141.969 164.257 141.748 164.399L142.006 166.424L144.23 165.568C144.217 165.232 144.187 164.907 144.137 164.59C144.093 164.267 144.032 163.986 143.954 163.749ZM147.3 161.4C146.972 161.29 146.673 161.121 146.401 160.894C146.393 160.801 146.413 160.69 146.46 160.561C146.514 160.431 146.582 160.309 146.665 160.194C146.755 160.079 146.841 160.005 146.924 159.971C147.016 159.957 147.124 159.977 147.247 160.032C147.377 160.086 147.496 160.155 147.604 160.239C147.718 160.322 147.789 160.409 147.817 160.499C147.826 160.599 147.803 160.714 147.749 160.844C147.694 160.967 147.625 161.083 147.541 161.19C147.463 161.297 147.383 161.367 147.3 161.4ZM149.394 161.071C149.067 160.96 148.767 160.792 148.495 160.564C148.487 160.471 148.507 160.36 148.554 160.231C148.608 160.101 148.676 159.979 148.76 159.865C148.85 159.749 148.936 159.675 149.018 159.642C149.11 159.627 149.218 159.648 149.342 159.702C149.471 159.756 149.59 159.825 149.698 159.91C149.812 159.993 149.883 160.08 149.911 160.17C149.92 160.269 149.897 160.384 149.844 160.514C149.789 160.638 149.719 160.753 149.635 160.861C149.557 160.968 149.477 161.038 149.394 161.071ZM149.879 161.643C149.953 161.644 150.058 161.665 150.192 161.705C150.327 161.744 150.459 161.791 150.589 161.845C150.725 161.897 150.828 161.952 150.898 162.009L151.577 167.49C151.489 167.706 151.354 167.94 151.17 168.191C150.994 168.442 150.824 168.647 150.66 168.808L148.625 169.128C148.518 169.132 148.375 169.107 148.198 169.054C148.02 168.994 147.833 168.919 147.636 168.828C147.439 168.731 147.257 168.625 147.09 168.509C146.93 168.393 146.811 168.28 146.734 168.171L146.681 166.033L145.998 162.455L146.254 162.213C146.328 162.215 146.433 162.238 146.569 162.285C146.711 162.33 146.852 162.395 146.994 162.481C147.135 162.56 147.245 162.661 147.325 162.783L147.739 165.998C147.795 166.401 147.86 166.792 147.933 167.172C148.005 167.545 148.092 167.862 148.194 168.123L150.312 167.365L150.307 165.462L149.624 161.885L149.879 161.643ZM157.319 166.283L157.643 166.738C157.582 166.95 157.485 167.168 157.351 167.391C157.216 167.608 157.072 167.806 156.918 167.986L153.746 168.222L153.362 168.545C153.07 168.49 152.832 168.375 152.65 168.202L152.559 165.108L151.876 161.531L152.131 161.288C152.206 161.29 152.314 161.314 152.456 161.359C152.604 161.396 152.742 161.442 152.872 161.496L155.727 160.723C155.929 160.806 156.11 160.909 156.271 161.032C156.439 161.154 156.599 161.294 156.753 161.452L156.698 162.007L153.266 162.456L153.506 164.372L155.678 163.696C155.906 163.775 156.099 163.863 156.255 163.96C156.419 164.056 156.564 164.181 156.689 164.337L156.631 164.933L153.632 165.304L153.936 167.24L157.319 166.283ZM160.623 163.364L163.013 162.988L163.134 163.759L162.615 163.931L162.795 165.725C162.722 165.946 162.606 166.177 162.449 166.418C162.29 166.652 162.133 166.855 161.978 167.028L159.952 167.347C159.845 167.35 159.695 167.32 159.503 167.255C159.317 167.19 159.122 167.106 158.917 167.003C158.711 166.894 158.527 166.778 158.366 166.655C158.204 166.525 158.094 166.404 158.036 166.292L157.607 161.824C157.656 161.702 157.727 161.555 157.822 161.385C157.922 161.208 158.033 161.035 158.156 160.867C158.277 160.693 158.389 160.547 158.492 160.43C158.958 160.262 159.465 160.135 160.011 160.049C160.564 159.962 161.093 159.953 161.596 160.022C161.702 160.093 161.812 160.191 161.926 160.315C162.038 160.432 162.129 160.539 162.199 160.636L162.288 162.11C162.183 162.167 162.038 162.214 161.855 162.249C161.67 162.278 161.51 162.29 161.374 162.284L161.042 161.071C160.696 161.099 160.33 161.153 159.944 161.234C159.564 161.307 159.22 161.415 158.912 161.558C158.863 161.89 158.839 162.278 158.842 162.723C158.85 163.16 158.88 163.611 158.933 164.075C158.984 164.533 159.052 164.964 159.136 165.369C159.226 165.774 159.326 166.109 159.436 166.375L161.725 165.61L161.562 164.573L160.597 164.168L160.623 163.364ZM168.731 164.488L169.056 164.943C168.994 165.155 168.897 165.373 168.763 165.596C168.629 165.813 168.484 166.011 168.33 166.191L165.159 166.427L164.774 166.75C164.482 166.695 164.245 166.58 164.062 166.407L163.971 163.313L163.288 159.736L163.544 159.493C163.618 159.495 163.726 159.519 163.868 159.564C164.016 159.601 164.155 159.647 164.285 159.701L167.139 158.928C167.341 159.011 167.523 159.114 167.684 159.237C167.852 159.359 168.012 159.499 168.165 159.657L168.11 160.212L164.678 160.661L164.919 162.577L167.09 161.902C167.318 161.98 167.511 162.068 167.668 162.165C167.831 162.261 167.976 162.386 168.102 162.542L168.043 163.138L165.045 163.509L165.349 165.445L168.731 164.488ZM173.094 162.283L174.935 164.727L174.517 165.218C174.327 165.214 174.108 165.174 173.86 165.098C173.612 165.023 173.389 164.913 173.191 164.768L172.196 162.556L170.751 162.834L171.134 165.274L170.447 165.858C170.155 165.803 169.917 165.688 169.735 165.514L169.644 162.421L168.961 158.844L169.216 158.601C169.31 158.6 169.45 158.628 169.634 158.687C169.826 158.745 169.988 158.81 170.121 158.884C170.37 158.71 170.638 158.566 170.924 158.454C171.216 158.34 171.5 158.255 171.775 158.199C172.056 158.141 172.305 158.119 172.523 158.132C172.717 158.202 172.904 158.301 173.086 158.428C173.268 158.554 173.43 158.687 173.574 158.827C173.723 158.959 173.836 159.076 173.912 159.178L174.094 161.174L173.094 162.283ZM172.577 159.247C172.368 159.246 172.132 159.273 171.871 159.327C171.608 159.375 171.346 159.447 171.085 159.542C170.829 159.636 170.592 159.755 170.371 159.897L170.628 161.922L172.852 161.066C172.84 160.731 172.809 160.405 172.76 160.089C172.716 159.765 172.655 159.484 172.577 159.247Z" fill="#E7F0F5"/>
<path d="M158.17 171.984L158.623 175.405L159.143 178.613L158.592 178.843C158.408 178.784 158.215 178.697 158.014 178.58C157.812 178.457 157.639 178.299 157.493 178.106L157.552 175.798L154.925 176.217L155.41 179.208L154.86 179.437C154.675 179.379 154.482 179.291 154.281 179.175C154.079 179.052 153.906 178.894 153.76 178.701L153.833 176.036L153.143 172.46L153.398 172.217C153.472 172.219 153.577 172.239 153.711 172.279C153.852 172.317 153.991 172.362 154.128 172.415C154.264 172.467 154.367 172.522 154.437 172.578L154.769 175.108L157.415 174.686L156.876 171.866L157.131 171.623C157.205 171.624 157.31 171.645 157.444 171.684C157.585 171.722 157.724 171.768 157.861 171.82C157.997 171.873 158.1 171.927 158.17 171.984ZM162.804 170.861C162.944 170.933 163.094 171.027 163.254 171.144C163.421 171.259 163.578 171.379 163.727 171.504C163.875 171.629 163.992 171.752 164.079 171.873L164.633 176.443C164.562 176.589 164.467 176.753 164.347 176.934C164.227 177.115 164.097 177.291 163.955 177.462C163.812 177.626 163.673 177.77 163.538 177.893L161.701 178.186C161.593 178.189 161.447 178.158 161.261 178.094C161.075 178.029 160.879 177.945 160.674 177.843C160.468 177.734 160.284 177.618 160.123 177.495C159.96 177.366 159.85 177.245 159.792 177.133L159.356 172.676C159.404 172.553 159.476 172.407 159.57 172.237C159.67 172.059 159.781 171.886 159.903 171.718C160.023 171.543 160.135 171.397 160.238 171.28C160.704 171.111 161.148 170.993 161.569 170.926C161.996 170.851 162.408 170.829 162.804 170.861ZM161.193 177.223L163.367 176.502C163.385 176.189 163.383 175.838 163.362 175.45C163.347 175.061 163.311 174.662 163.252 174.253C163.2 173.836 163.13 173.438 163.043 173.061C162.961 172.675 162.863 172.337 162.749 172.044C162.415 172.023 162.058 172.046 161.677 172.114C161.303 172.18 160.962 172.288 160.655 172.438C160.608 172.777 160.588 173.165 160.597 173.602C160.606 174.039 160.633 174.487 160.679 174.946C160.731 175.397 160.802 175.824 160.893 176.228C160.983 176.626 161.083 176.957 161.193 177.223ZM170.183 170.951L167.926 171.088L168.277 173.867L168.817 177.072L168.286 177.299C168.101 177.24 167.908 177.153 167.707 177.036C167.506 176.913 167.332 176.755 167.187 176.562L167.239 173.901L166.749 171.326L165.226 171.812C165.045 171.733 164.886 171.646 164.75 171.553C164.613 171.46 164.466 171.339 164.307 171.188L164.403 170.586L167.26 170.212L169.358 169.716C169.592 169.827 169.781 169.935 169.926 170.04C170.07 170.139 170.195 170.244 170.3 170.355L170.183 170.951ZM176.28 174.385L176.605 174.84C176.544 175.052 176.447 175.27 176.314 175.493C176.18 175.711 176.036 175.909 175.882 176.089L172.711 176.331L172.327 176.655C172.035 176.6 171.797 176.486 171.615 176.313L171.518 173.22L170.828 169.644L171.083 169.401C171.157 169.402 171.265 169.425 171.408 169.47C171.555 169.508 171.694 169.553 171.824 169.606L174.677 168.828C174.879 168.911 175.061 169.013 175.222 169.136C175.39 169.258 175.551 169.398 175.704 169.556L175.651 170.111L172.22 170.566L172.464 172.482L174.634 171.802C174.862 171.88 175.055 171.968 175.212 172.064C175.376 172.16 175.521 172.285 175.647 172.44L175.589 173.037L172.591 173.413L172.899 175.349L176.28 174.385ZM181.328 173.581L181.654 174.035C181.593 174.248 181.496 174.466 181.363 174.689C181.229 174.907 181.085 175.105 180.931 175.285L178.364 175.44L177.998 175.752C177.706 175.697 177.468 175.583 177.285 175.41L177.188 172.316L176.498 168.74L176.753 168.497C176.828 168.499 176.932 168.519 177.067 168.559C177.208 168.597 177.347 168.642 177.483 168.695C177.62 168.747 177.723 168.802 177.793 168.858L178.226 172.283L178.567 174.426L181.328 173.581Z" fill="#E7F0F5"/>
<path d="M141.958 194.498L142.312 194.931C142.264 195.147 142.181 195.371 142.062 195.602C141.942 195.827 141.81 196.034 141.668 196.223L138.518 196.663L138.155 197.011C137.86 196.975 137.616 196.876 137.423 196.714L137.133 193.633L136.221 190.107L136.46 189.849C136.535 189.846 136.644 189.862 136.789 189.898C136.939 189.926 137.08 189.962 137.213 190.008L140.012 189.052C140.219 189.122 140.407 189.213 140.575 189.325C140.751 189.436 140.92 189.566 141.082 189.714L141.064 190.271L137.668 190.941L138.031 192.837L140.154 192.023C140.387 192.087 140.585 192.162 140.748 192.248C140.917 192.334 141.07 192.45 141.205 192.597L141.185 193.196L138.217 193.759L138.645 195.672L141.958 194.498ZM146.947 193.379L147.3 193.813C147.252 194.028 147.169 194.252 147.05 194.483C146.93 194.709 146.799 194.916 146.656 195.105L144.104 195.421L143.758 195.755C143.463 195.718 143.219 195.619 143.026 195.458L142.736 192.376L141.824 188.851L142.063 188.592C142.138 188.589 142.243 188.603 142.38 188.634C142.523 188.663 142.665 188.7 142.804 188.743C142.944 188.787 143.05 188.835 143.123 188.887L143.769 192.278L144.243 194.396L146.947 193.379ZM151.286 187.948L149.043 188.226L149.567 190.978L150.306 194.143L149.79 194.402C149.602 194.355 149.404 194.28 149.196 194.176C148.987 194.066 148.804 193.919 148.647 193.736L148.533 191.076L147.883 188.537L146.394 189.117C146.208 189.049 146.044 188.973 145.902 188.889C145.76 188.805 145.605 188.693 145.437 188.553L145.496 187.945L148.324 187.393L150.387 186.766C150.627 186.863 150.823 186.959 150.974 187.055C151.124 187.144 151.255 187.241 151.367 187.346L151.286 187.948ZM157.586 190.993L157.939 191.426C157.892 191.642 157.808 191.866 157.689 192.097C157.569 192.322 157.438 192.529 157.296 192.718L154.146 193.158L153.783 193.506C153.488 193.47 153.244 193.371 153.05 193.209L152.76 190.128L151.848 186.602L152.088 186.344C152.162 186.341 152.272 186.357 152.416 186.393C152.566 186.421 152.708 186.457 152.841 186.503L155.64 185.547C155.846 185.617 156.034 185.708 156.203 185.82C156.378 185.931 156.547 186.061 156.71 186.209L156.691 186.766L153.295 187.436L153.658 189.332L155.782 188.518C156.015 188.582 156.212 188.657 156.375 188.743C156.545 188.828 156.697 188.945 156.832 189.092L156.813 189.691L153.844 190.254L154.272 192.167L157.586 190.993ZM161.798 188.511L163.792 190.831L163.406 191.348C163.217 191.356 162.996 191.331 162.743 191.271C162.491 191.212 162.261 191.116 162.054 190.985L160.919 188.842L159.495 189.212L160.035 191.622L159.386 192.25C159.091 192.213 158.847 192.114 158.653 191.953L158.363 188.871L157.451 185.346L157.691 185.087C157.785 185.08 157.926 185.099 158.114 185.146C158.308 185.191 158.474 185.246 158.612 185.311C158.849 185.121 159.107 184.961 159.385 184.83C159.67 184.698 159.948 184.594 160.218 184.52C160.495 184.444 160.742 184.406 160.961 184.405C161.158 184.463 161.352 184.549 161.541 184.664C161.731 184.779 161.902 184.901 162.054 185.031C162.211 185.153 162.331 185.262 162.414 185.36L162.724 187.34L161.798 188.511ZM161.086 185.514C160.877 185.527 160.644 185.569 160.387 185.64C160.128 185.705 159.871 185.794 159.616 185.905C159.367 186.016 159.138 186.149 158.927 186.306L159.314 188.31L161.478 187.312C161.444 186.978 161.392 186.655 161.323 186.343C161.258 186.022 161.179 185.746 161.086 185.514ZM167.496 187.233L169.491 189.553L169.104 190.07C168.915 190.078 168.694 190.053 168.441 189.993C168.189 189.934 167.959 189.838 167.752 189.707L166.617 187.563L165.193 187.934L165.733 190.344L165.084 190.972C164.789 190.935 164.545 190.836 164.352 190.675L164.062 187.593L163.15 184.068L163.389 183.809C163.483 183.801 163.624 183.821 163.812 183.868C164.007 183.913 164.173 183.968 164.31 184.033C164.548 183.843 164.806 183.682 165.084 183.552C165.368 183.42 165.646 183.316 165.916 183.242C166.193 183.166 166.441 183.128 166.659 183.127C166.856 183.185 167.05 183.271 167.24 183.386C167.429 183.501 167.6 183.623 167.752 183.753C167.909 183.875 168.029 183.984 168.113 184.082L168.423 186.062L167.496 187.233ZM166.784 184.236C166.575 184.249 166.342 184.291 166.085 184.362C165.826 184.427 165.569 184.516 165.314 184.627C165.066 184.738 164.836 184.871 164.625 185.028L165.012 187.032L167.176 186.034C167.143 185.7 167.091 185.377 167.021 185.064C166.956 184.744 166.877 184.468 166.784 184.236ZM172.504 181.908C172.648 181.971 172.803 182.056 172.97 182.162C173.144 182.267 173.309 182.377 173.464 182.492C173.62 182.607 173.745 182.723 173.839 182.838L174.678 187.365C174.616 187.515 174.531 187.684 174.423 187.873C174.314 188.061 174.195 188.245 174.064 188.424C173.932 188.598 173.802 188.75 173.675 188.881L171.86 189.288C171.753 189.298 171.605 189.277 171.415 189.224C171.226 189.17 171.025 189.099 170.814 189.01C170.601 188.914 170.41 188.81 170.242 188.698C170.072 188.579 169.954 188.465 169.889 188.357L169.176 183.935C169.216 183.81 169.278 183.66 169.362 183.484C169.451 183.3 169.551 183.12 169.662 182.945C169.771 182.763 169.874 182.611 169.969 182.487C170.423 182.289 170.859 182.144 171.275 182.05C171.697 181.949 172.106 181.902 172.504 181.908ZM171.293 188.359L173.418 187.504C173.416 187.19 173.392 186.84 173.347 186.454C173.308 186.066 173.247 185.67 173.163 185.265C173.084 184.852 172.989 184.46 172.879 184.089C172.774 183.709 172.655 183.377 172.523 183.093C172.188 183.092 171.833 183.138 171.457 183.229C171.088 183.319 170.755 183.448 170.458 183.617C170.431 183.958 170.436 184.346 170.472 184.782C170.508 185.218 170.564 185.664 170.638 186.118C170.718 186.565 170.816 186.987 170.932 187.385C171.047 187.776 171.167 188.101 171.293 188.359ZM178.873 184.681L180.868 187.001L180.482 187.518C180.292 187.526 180.071 187.501 179.819 187.441C179.566 187.382 179.337 187.286 179.13 187.155L177.994 185.012L176.571 185.382L177.11 187.793L176.462 188.42C176.167 188.383 175.922 188.284 175.729 188.123L175.439 185.042L174.527 181.516L174.766 181.257C174.86 181.25 175.002 181.269 175.19 181.316C175.384 181.361 175.55 181.416 175.688 181.481C175.925 181.291 176.183 181.131 176.461 181C176.746 180.868 177.023 180.764 177.294 180.69C177.571 180.614 177.818 180.576 178.036 180.575C178.234 180.633 178.427 180.719 178.617 180.834C178.807 180.949 178.977 181.071 179.13 181.201C179.287 181.323 179.407 181.432 179.49 181.53L179.8 183.51L178.873 184.681ZM178.162 181.684C177.953 181.697 177.72 181.739 177.462 181.81C177.204 181.875 176.947 181.964 176.692 182.076C176.443 182.186 176.213 182.319 176.003 182.476L176.389 184.48L178.554 183.482C178.52 183.148 178.468 182.825 178.398 182.513C178.334 182.192 178.255 181.916 178.162 181.684Z" fill="#D06857"/>
<path d="M142.663 177.046C143.067 178.667 142.082 180.31 140.463 180.715C138.843 181.12 137.202 180.135 136.798 178.514C136.393 176.893 137.379 175.251 138.998 174.845C140.617 174.44 142.258 175.425 142.663 177.046Z" stroke="#E7F0F5" stroke-width="2"/>
<ellipse cx="2.51438" cy="2.51535" rx="2.51438" ry="2.51535" transform="matrix(0.970104 -0.242689 0.242108 0.970249 132.32 176.522)" fill="#E7F0F5"/>
<ellipse cx="1.00575" cy="1.00614" rx="1.00575" ry="1.00614" transform="matrix(0.970104 -0.242689 0.242108 0.970249 134.515 177.01)" fill="#2E2F26"/>
<path d="M135.232 180.229L133.294 184.576M131.344 185.064L132.563 185.796L133.294 184.576M133.294 184.576L132.076 183.844" stroke="#E7F0F5" stroke-width="2"/>
<rect width="10.0579" height="5.03114" rx="1" transform="matrix(0.884106 0.466871 -0.46653 0.884725 143.229 173.793)" fill="#E7F0F5"/>
<path d="M152.47 380.206C152.47 380.206 159.587 383.495 160.414 388.62C161.196 393.466 159.559 398.107 158.323 402.859C155.763 412.703 158.323 420.135 158.323 426.4C158.323 434.219 154.711 437.412 146.726 453.929C126.903 494.937 80.7576 465.51 96.1566 445.576C107.397 431.025 117.796 424.989 120.681 405.896C121.701 399.152 119.291 390.501 122.773 384.633C125.814 379.507 135.73 378.28 135.73 378.28V383.988C140.834 382.908 148.424 384.629 149.197 388.62C150.054 393.041 149.087 394.243 148.553 394.567C150.005 394.003 151.337 393.455 152.47 392.891V380.206Z" fill="#57657C"/>
<path d="M148.246 394.685C147.752 394.876 147.244 395.069 146.726 395.265C141.212 397.353 143.113 411.972 139.501 420.515C133.52 434.662 127.756 454.66 114.598 446.715C106.423 441.779 126.75 429.751 129.235 415.199C130.185 409.637 132.673 401.048 131.712 396.024C131.712 396.024 131.391 395.425 131.135 394.226C130.833 392.812 130.622 390.564 131.137 387.48C132.087 381.785 148.056 382.734 149.197 388.62C150.054 393.041 149.087 394.243 148.553 394.567C148.376 394.674 148.246 394.685 148.246 394.685Z" fill="#57657C"/>
<path d="M156.232 388.62C156.612 391.468 152.24 393.176 146.726 395.265C141.212 397.353 143.113 411.972 139.501 420.515C133.52 434.662 127.756 454.66 114.598 446.715C106.423 441.779 126.75 429.751 129.235 415.199C130.45 408.086 134.179 396.024 129.997 392.796C127.353 390.756 127.335 388.62 128.096 386.152M152.47 380.206C152.47 380.206 159.587 383.495 160.414 388.62C161.196 393.466 159.559 398.107 158.323 402.859C155.763 412.703 158.323 420.135 158.323 426.4C158.323 434.219 154.711 437.412 146.726 453.929C126.903 494.937 80.7576 465.51 96.1566 445.576C107.397 431.025 117.796 424.989 120.681 405.896C121.701 399.152 119.291 390.501 122.773 384.633C125.814 379.507 135.73 378.28 135.73 378.28M131.712 396.024C131.712 396.024 130.186 393.176 131.137 387.48C132.087 381.785 148.056 382.734 149.197 388.62C150.338 394.505 148.246 394.685 148.246 394.685" stroke="#2E2F26" stroke-width="2"/>
<path d="M147.878 403.167C145.804 402.278 130.398 402.278 127.879 399.612C125.361 396.945 122.99 408.056 125.509 411.166C128.027 414.277 143.434 416.969 147.878 413.24C152.322 409.511 149.952 404.056 147.878 403.167Z" fill="#414C5E" stroke="#2E2F26" stroke-width="2"/>
<path d="M164.617 383.02C166.004 380.296 168.196 378.34 170.987 377.095L171.244 388.597C172.656 388.916 174.607 389.092 176.963 390.548L176.765 389.094C176.765 389.094 176.517 386.595 176.963 384.82C177.776 381.582 183.032 379.527 186.542 380.307V376.502C189.298 376.517 193.519 378.657 195.16 380.872C198.417 385.266 194.905 393.796 196.877 398.898C199.686 406.169 205.014 408.983 209.924 415.037C217.778 424.72 227.263 429.973 230.009 441.304C233.516 455.772 219.022 467.229 203.572 459.16C191.526 452.868 185.33 444.223 180.225 438.901C173.063 431.435 167.602 428.6 164.603 422.762C162.199 418.084 162.854 386.485 164.617 383.02Z" fill="#57657C"/>
<path d="M170.987 377.095C168.196 378.34 166.004 380.296 164.617 383.02C162.854 386.485 162.199 418.084 164.603 422.762C167.602 428.6 173.063 431.435 180.225 438.901C185.33 444.223 191.526 452.868 203.572 459.16C219.022 467.229 233.516 455.772 230.009 441.304C227.263 429.973 217.778 424.72 209.924 415.037C205.014 408.983 199.686 406.169 196.877 398.898C194.905 393.796 198.417 385.266 195.16 380.872C193.519 378.657 189.298 376.517 186.542 376.502M168.723 384.82C168.723 390.658 172.5 386.881 178.336 391.516C182.1 396.643 177.871 404.062 182.113 409.543C186.233 414.865 207.177 444.395 217.649 434.78C221.495 431.249 197.375 414.35 191.898 403.019C190.328 399.769 188.808 391.516 189.323 388.597C189.838 385.679 190.868 387.396 191.898 383.447M176.963 390.548C176.963 390.548 176.517 386.595 176.963 384.82C178.062 380.446 187.266 378.232 189.323 382.245C190.094 383.747 189.527 387.739 189.527 387.739" stroke="#2E2F26" stroke-width="2"/>
<path d="M191.726 392.057C189.949 396.353 177.357 398.426 175.283 397.537C173.209 396.649 171.135 403.167 173.654 406.278C176.172 409.388 187.875 406.451 192.319 402.722C196.763 398.993 193.504 387.76 191.726 392.057Z" fill="#414C5E" stroke="#2E2F26" stroke-width="2"/>
</svg>
