<svg width="117" height="123" viewBox="0 0 117 123" fill="none" xmlns="http://www.w3.org/2000/svg">
<path d="M67.8245 122.327C60.235 124.419 51.3811 121.002 57.0105 117.32C57.0105 117.32 56.1214 110.988 56.1214 106.129C43.0854 103.331 29.3086 98.619 19.6795 84.188C17.1612 84.9244 5.45833 88.753 1.75488 74.6165C-3.15063 55.8918 17.4575 59.7438 17.4575 59.7438C17.4575 59.7438 38.9374 51.6447 50.7885 43.2513C62.6395 34.8578 69.7502 19.1016 69.7502 19.1016C69.7502 19.1016 77.0089 26.6451 82.1938 28.3786C87.3786 30.1121 94.9336 30.2929 94.9336 30.2929C94.9336 30.2929 99.3778 35.7413 100.267 46.7854C102.933 43.1041 107.706 41.653 109.007 44.1348C112.118 50.0725 110.044 58.124 104.859 64.0142C106.933 72.2606 105.847 77.4919 101.748 85.0716C95.8474 95.983 74.7869 104.067 74.7869 104.067L75.972 112.903C81.8975 114.964 73.9982 120.625 67.8245 122.327Z" fill="#FAE2CA"/>
<path d="M75.2313 104.067C69.3058 105.54 62.7877 107.749 55.9734 106.129C55.9734 109.221 55.7786 108.044 56.7141 110.105C63.3803 114.522 72.4167 113.786 75.5276 107.601C75.5276 105.245 75.927 105.965 75.2313 104.067Z" fill="#EDC196"/>
<path d="M17.6065 59.4492C17.6065 59.4492 36.7161 52.6755 48.1228 45.1655C59.5295 37.6554 66.1957 27.3476 69.4548 18.9541C69.4548 18.9541 82.7864 32.207 95.0818 30.5872C101.007 38.9807 98.749 44.8645 100.267 54.737C100.35 55.2812 100.471 55.8235 100.621 56.3656C101.122 57.5003 101.556 58.6707 101.911 59.8763C105.898 69.0572 113.286 79.1467 87.2305 97.7353C102.303 82.7523 104.911 70.0578 101.911 59.8763C101.399 58.6964 100.942 57.5316 100.621 56.3656C93.2079 39.5816 71.0835 30.5872 71.0835 30.5872C66.0468 40.895 34.1971 61.9525 25.0125 60.7745C15.828 59.5964 17.6065 59.4492 17.6065 59.4492Z" fill="#EDC196"/>
<path d="M100.119 47.5214C110.784 33.0906 115.08 55.1786 104.711 64.1612" stroke="#2E2F26" stroke-width="2"/>
<path d="M19.5312 60.4794C-9.94823 51.4417 -0.0228155 95.6732 21.3091 83.1566" stroke="#2E2F26" stroke-width="2"/>
<path d="M94.7855 30.1455C100.118 35.1522 100.118 48.1106 100.118 54.148" stroke="#2E2F26" stroke-width="2" stroke-linejoin="round"/>
<path d="M100.267 55.9146C113.599 74.3214 101.6 90.8139 85.0085 99.2074C67.217 110.095 41.6236 110.947 19.3833 83.8929" stroke="#2E2F26" stroke-width="2" stroke-linejoin="round"/>
<path d="M55.9734 106.129L57.3066 118.793M75.972 115.7L75.2313 103.92" stroke="#2E2F26" stroke-width="2"/>
<path d="M74.4908 72.1133C80.2681 69.1684 78.7868 62.818 77.4535 61.6582C76.1203 60.4985 72.1072 63.2783 70.491 65.1923" stroke="#2E2F26" stroke-width="2"/>
<path d="M50.3441 32.3544C38.7893 26.6115 35.3822 33.5324 30.6417 41.1895" stroke="#2E2F26" stroke-width="2"/>
<path d="M89.8971 26.0223C80.2681 19.3959 75.3796 22.4882 70.6391 30.1454" stroke="#2E2F26" stroke-width="2"/>
<path d="M88.4743 33.3849C98.0447 36.0355 98.1927 58.7126 87.5267 60.6269C76.8608 62.5412 75.6754 51.0554 75.2312 45.3125C74.787 39.5696 78.9039 30.7343 88.4743 33.3849Z" fill="white"/>
<path d="M75.2312 45.3125C74.787 39.5696 78.9039 30.7343 88.4743 33.3849C94.9702 35.184 97.1252 46.2093 94.5041 53.7061" stroke="#2E2F26" stroke-width="2"/>
<path d="M81.7495 41.7785C76.1893 43.6191 76.4166 57.8292 83.6754 58.1238C90.9342 58.4183 90.0452 51.3501 89.6008 48.1105C89.1564 44.8709 87.3097 39.938 81.7495 41.7785Z" fill="#681F2E"/>
<path d="M81.7822 44.0876C77.4535 46.1965 78.1512 55.9862 83.9912 56.2048C89.8313 56.4235 88.9052 49.4975 88.1627 47.6774C87.4201 45.8574 86.111 41.9786 81.7822 44.0876Z" fill="#2E2F26"/>
<path d="M81.3207 45.5075C79.473 46.8143 80.67 52.66 82.9862 52.041C85.3023 51.4221 84.964 47.8115 84.5997 46.8143C84.2353 45.8171 83.1683 44.2008 81.3207 45.5075Z" fill="white"/>
<path d="M80.5 81.7454C75.9999 89.2007 56 91.1887 53.5 79.7573" stroke="#2E2F26" stroke-width="2"/>
<path d="M85.4528 2.35003C89.897 6.62052 93.4523 5.58962 97.8964 5.58963C103.481 5.58965 106.826 -0.132804 111.821 2.35003C120.71 6.76777 111.806 21.9355 102.933 27.3833C92.8598 33.568 75.2313 28.5613 67.6763 15.7502" stroke="#2E2F26" stroke-width="2" stroke-linejoin="round"/>
<path d="M17.6064 59.4492C17.6064 59.4492 36.716 52.6755 48.1227 45.1655C59.5295 37.6554 66.1957 27.3476 69.4547 18.9541" stroke="#2E2F26" stroke-width="2"/>
<path d="M41.752 41.4841C31.2343 47.0799 38.0483 72.1131 51.2328 69.4625C64.4173 66.812 62.4914 51.3504 60.4174 47.08C58.3435 42.8096 52.2696 35.8883 41.752 41.4841Z" fill="white"/>
<path d="M60.4174 47.08C58.3435 42.8096 52.2696 35.8883 41.752 41.4841C35.9774 44.5564 35.4273 53.4879 38.2876 60.48C39.6855 63.8974 41.8981 66.8514 44.7135 68.4318" stroke="#2E2F26" stroke-width="2"/>
<path d="M45.0303 48.9729C39.241 52.4575 42.9916 68.0461 50.2489 66.3956C57.5062 64.745 56.4461 55.1168 55.3045 52.4575C54.1629 49.7983 50.8196 45.4883 45.0303 48.9729Z" fill="#681F2E"/>
<path d="M46.4961 51.5107C42.5545 53.9064 45.1081 64.6236 50.0492 63.4888C54.9903 62.3541 54.2686 55.7347 53.4913 53.9064C52.7141 52.0782 50.4378 49.1151 46.4961 51.5107Z" fill="#2E2F26" stroke="#2E2F26" stroke-width="2"/>
<path d="M46.36 52.3222C44.5123 53.7378 45.7093 60.0707 48.0255 59.4002C50.3416 58.7296 50.0033 54.8182 49.639 53.7378C49.2746 52.6575 48.2076 50.9066 46.36 52.3222Z" fill="white"/>
<path d="M60.4174 47.08C58.3435 42.8096 52.2696 35.8883 41.752 41.4841C35.9774 44.5564 35.4273 53.4879 38.2876 60.48C39.6855 63.8974 41.8981 66.8514 44.7135 68.4318" stroke="#2E2F26" stroke-width="2"/>
</svg>
